<?xml version="1.0" encoding="utf-8"?>
<!-- Generator: Adobe Illustrator 16.0.4, SVG Export Plug-In . SVG Version: 6.00 Build 0)  -->
<!DOCTYPE svg PUBLIC "-//W3C//DTD SVG 1.1//EN" "http://www.w3.org/Graphics/SVG/1.1/DTD/svg11.dtd">
<svg version="1.1" id="Layer_1" xmlns="http://www.w3.org/2000/svg" xmlns:xlink="http://www.w3.org/1999/xlink" x="0px" y="0px"
	 width="180px" height="260px" viewBox="0 0 180 260" enable-background="new 0 0 180 260" xml:space="preserve">
<g>
	<defs>
		<rect id="SVGID_1_" x="1" y="-0.5" width="179" height="259"/>
	</defs>
	<clipPath id="SVGID_2_">
		<use xlink:href="#SVGID_1_"  overflow="visible"/>
	</clipPath>
	<rect clip-path="url(#SVGID_2_)" fill="#EBE6E5" width="180" height="260"/>
	<g clip-path="url(#SVGID_2_)">
		<path fill="#DCD9CC" d="M55.179,97.798H40.828l-3.734,8.142h-5.45l16.588-35.629l16.002,35.629h-5.537L55.179,97.798z
			 M53.117,93.043l-4.972-11.398l-5.211,11.398H53.117z"/>
		<path fill="#DCD9CC" d="M46.842,127.226l10.378,14.288h-6.188l-9.575-13.723h-0.912v13.723h-5.059V107.99h5.927
			c4.429,0,7.628,0.833,9.597,2.497c2.171,1.853,3.257,4.299,3.257,7.339c0,2.374-0.681,4.415-2.041,6.123
			C50.866,125.656,49.071,126.749,46.842,127.226z M40.546,123.383h1.606c4.791,0,7.187-1.831,7.187-5.493
			c0-3.431-2.331-5.146-6.991-5.146h-1.802V123.383z"/>
		<path fill="#DCD9CC" d="M60.26,145.354v5.981c-2.924-2.446-5.949-3.669-9.075-3.669c-3.445,0-6.348,1.236-8.707,3.713
			c-2.374,2.461-3.561,5.471-3.561,9.031c0,3.518,1.187,6.484,3.561,8.902s5.283,3.625,8.729,3.625c1.78,0,3.293-0.289,4.537-0.867
			c0.695-0.289,1.415-0.682,2.161-1.174c0.745-0.49,1.53-1.084,2.355-1.779v6.111c-2.896,1.644-5.935,2.465-9.119,2.465
			c-4.791,0-8.88-1.672-12.267-5.017c-3.373-3.372-5.059-7.438-5.059-12.2c0-4.271,1.412-8.078,4.234-11.422
			c3.474-4.097,7.968-6.145,13.483-6.145C54.542,142.911,57.452,143.725,60.26,145.354z"/>
		<path fill="#DCD9CC" d="M40.546,192.249h14.46v-13.114h5.059v33.523h-5.059v-15.654h-14.46v15.654h-5.059v-33.523h5.059V192.249
			L40.546,192.249z"/>
		<path fill="#DCD9CC" d="M40.546,214.708v33.522h-5.059v-33.522H40.546z"/>
		<path fill="#DCD9CC" d="M44.736,255.035v28.77h-5.059v-28.77H31.97v-4.754h20.453v4.754H44.736L44.736,255.035z"/>
		<path fill="#DCD9CC" d="M53.986,290.607h-13.44v8.056h13.048v4.755H40.546v11.203h13.44v4.756H35.487v-33.523h18.499V290.607z"/>
		<path fill="#DCD9CC" d="M60.26,323.217v5.982c-2.924-2.446-5.949-3.67-9.075-3.67c-3.445,0-6.348,1.237-8.707,3.713
			c-2.374,2.461-3.561,5.472-3.561,9.032c0,3.518,1.187,6.484,3.561,8.9c2.374,2.418,5.283,3.627,8.729,3.627
			c1.78,0,3.293-0.29,4.537-0.869c0.695-0.288,1.415-0.68,2.161-1.172c0.745-0.491,1.53-1.086,2.355-1.78v6.11
			c-2.896,1.646-5.935,2.465-9.119,2.465c-4.791,0-8.88-1.672-12.267-5.016c-3.373-3.371-5.059-7.439-5.059-12.201
			c0-4.27,1.412-8.077,4.234-11.421c3.474-4.096,7.968-6.144,13.483-6.144C54.542,320.775,57.452,321.589,60.26,323.217z"/>
		<path fill="#DCD9CC" d="M44.736,361.754v28.769h-5.059v-28.769H31.97v-4.755h20.453v4.755H44.736z"/>
		<path fill="#DCD9CC" d="M40.546,392.572v20.177c0,2.878,0.47,4.982,1.411,6.312c1.404,1.925,3.379,2.887,5.927,2.887
			c2.562,0,4.545-0.962,5.949-2.887c0.94-1.286,1.411-3.393,1.411-6.312v-20.177h5.059v21.581c0,3.531-1.1,6.44-3.3,8.729
			c-2.476,2.547-5.515,3.821-9.119,3.821s-6.637-1.274-9.097-3.821c-2.2-2.287-3.3-5.196-3.3-8.729v-21.581H40.546z"/>
		<path fill="#DCD9CC" d="M46.842,447.382l10.378,14.286h-6.188l-9.575-13.722h-0.912v13.722h-5.059v-33.523h5.927
			c4.429,0,7.628,0.833,9.597,2.497c2.171,1.854,3.257,4.3,3.257,7.339c0,2.374-0.681,4.415-2.041,6.123
			C50.866,445.812,49.071,446.904,46.842,447.382z M40.546,443.538h1.606c4.791,0,7.187-1.83,7.187-5.492
			c0-3.431-2.331-5.146-6.991-5.146h-1.802V443.538z"/>
		<path fill="#DCD9CC" d="M53.986,468.472h-13.44v8.057h13.048v4.755H40.546v11.203h13.44v4.755H35.487v-33.523h18.499V468.472z"/>
	</g>
	<path clip-path="url(#SVGID_2_)" fill="#939598" d="M29.393,23.075h-8.069l-2.1,4.578H16.16l9.326-20.032l8.997,20.032H31.37
		L29.393,23.075z M28.233,20.402l-2.795-6.409l-2.93,6.409H28.233z"/>
	<path clip-path="url(#SVGID_2_)" fill="#939598" d="M24.706,39.621l5.835,8.032h-3.479l-5.383-7.715h-0.513v7.715h-2.844V28.805
		h3.333c2.49,0,4.289,0.468,5.396,1.404c1.221,1.042,1.831,2.417,1.831,4.126c0,1.335-0.383,2.482-1.147,3.442
		C26.968,38.738,25.958,39.352,24.706,39.621z M21.166,37.46h0.903c2.693,0,4.041-1.029,4.041-3.088
		c0-1.929-1.311-2.893-3.931-2.893h-1.013V37.46z"/>
	<path clip-path="url(#SVGID_2_)" fill="#939598" d="M32.25,49.812v3.363c-1.644-1.375-3.345-2.063-5.103-2.063
		c-1.937,0-3.569,0.696-4.895,2.087c-1.335,1.384-2.002,3.076-2.002,5.078c0,1.978,0.667,3.646,2.002,5.005
		c1.334,1.359,2.97,2.039,4.907,2.039c1.001,0,1.851-0.163,2.551-0.488c0.391-0.163,0.795-0.382,1.215-0.659
		c0.419-0.276,0.86-0.61,1.324-1.001v3.436c-1.628,0.924-3.337,1.386-5.127,1.386c-2.694,0-4.993-0.94-6.897-2.82
		c-1.896-1.896-2.844-4.183-2.844-6.86c0-2.4,0.793-4.541,2.38-6.421c1.953-2.303,4.48-3.455,7.581-3.455
		C29.035,48.439,30.67,48.897,32.25,49.812z"/>
	<path clip-path="url(#SVGID_2_)" fill="#939598" d="M21.166,76.178h8.13v-7.373h2.844v18.848h-2.844v-8.801h-8.13v8.801h-2.844
		V68.805h2.844V76.178z"/>
	<path clip-path="url(#SVGID_2_)" fill="#939598" d="M21.166,88.805v18.848h-2.844V88.805H21.166z"/>
	<path clip-path="url(#SVGID_2_)" fill="#939598" d="M23.521,111.479v16.174h-2.844v-16.174h-4.333v-2.673h11.499v2.673H23.521z"/>
	<path clip-path="url(#SVGID_2_)" fill="#939598" d="M28.722,131.479h-7.556v4.528h7.336v2.673h-7.336v6.299h7.556v2.674h-10.4
		v-18.847h10.4V131.479z"/>
	<path clip-path="url(#SVGID_2_)" fill="#939598" d="M32.25,149.812v3.362c-1.644-1.375-3.345-2.063-5.103-2.063
		c-1.937,0-3.569,0.697-4.895,2.089c-1.335,1.384-2.002,3.075-2.002,5.077c0,1.979,0.667,3.646,2.002,5.006
		c1.334,1.359,2.97,2.037,4.907,2.037c1.001,0,1.851-0.161,2.551-0.487c0.391-0.162,0.795-0.382,1.215-0.658
		c0.419-0.276,0.86-0.61,1.324-1.002v3.437c-1.628,0.925-3.337,1.387-5.127,1.387c-2.694,0-4.993-0.939-6.897-2.82
		c-1.896-1.896-2.844-4.183-2.844-6.859c0-2.4,0.793-4.541,2.38-6.422c1.953-2.303,4.48-3.453,7.581-3.453
		C29.035,148.438,30.67,148.896,32.25,149.812z"/>
	<path clip-path="url(#SVGID_2_)" fill="#939598" d="M23.521,171.479v16.174h-2.844v-16.174h-4.333v-2.674h11.499v2.674H23.521z"/>
	<path clip-path="url(#SVGID_2_)" fill="#939598" d="M21.166,188.805v11.344c0,1.619,0.264,2.803,0.793,3.551
		c0.789,1.082,1.9,1.621,3.333,1.621c1.44,0,2.555-0.539,3.345-1.621c0.529-0.725,0.793-1.907,0.793-3.551v-11.344h2.844v12.135
		c0,1.984-0.619,3.621-1.855,4.906c-1.392,1.434-3.101,2.148-5.127,2.148s-3.731-0.717-5.115-2.148
		c-1.237-1.285-1.855-2.922-1.855-4.906v-12.135H21.166z"/>
	<path clip-path="url(#SVGID_2_)" d="M24.706,219.62l5.835,8.032h-3.479l-5.383-7.715h-0.513v7.715h-2.844v-18.848h3.333
		c2.49,0,4.289,0.467,5.396,1.403c1.221,1.041,1.831,2.416,1.831,4.125c0,1.335-0.383,2.481-1.147,3.442
		C26.968,218.736,25.958,219.352,24.706,219.62z M21.166,217.459h0.903c2.693,0,4.041-1.029,4.041-3.088
		c0-1.93-1.311-2.893-3.931-2.893h-1.013V217.459z"/>
	<path clip-path="url(#SVGID_2_)" fill="#939598" d="M28.722,231.479h-7.556v4.528h7.336v2.673h-7.336v6.299h7.556v2.674h-10.4
		v-18.848h10.4V231.479z"/>
	<g clip-path="url(#SVGID_2_)">
		<path d="M35.481,225.443l-5.347-9.682h3.186l3.638,6.836l3.394-6.836h3.101l-9.473,18.359h-3.137L35.481,225.443z"/>
		<path d="M53.658,215.764h2.758v11.889h-2.758v-1.244c-1.131,1.058-2.348,1.587-3.65,1.587c-1.644,0-3.003-0.595-4.077-1.782
			c-1.066-1.212-1.599-2.727-1.599-4.541c0-1.781,0.533-3.267,1.599-4.456c1.066-1.188,2.4-1.78,4.004-1.78
			c1.384,0,2.624,0.568,3.724,1.709L53.658,215.764L53.658,215.764z M47.139,221.671c0,1.14,0.305,2.067,0.916,2.783
			c0.626,0.726,1.416,1.087,2.369,1.087c1.016,0,1.838-0.35,2.465-1.051c0.627-0.725,0.939-1.643,0.939-2.758
			s-0.312-2.035-0.939-2.76c-0.627-0.707-1.439-1.062-2.441-1.062c-0.944,0-1.733,0.357-2.368,1.074
			C47.452,219.71,47.139,220.605,47.139,221.671z"/>
		<path d="M59.883,215.764h2.759v1.098c0.96-0.951,2.043-1.428,3.247-1.428c1.384,0,2.462,0.437,3.235,1.307
			c0.667,0.74,1,1.949,1,3.626v7.286h-2.758v-6.633c0-1.17-0.163-1.979-0.488-2.426c-0.318-0.455-0.896-0.683-1.734-0.683
			c-0.911,0-1.558,0.301-1.94,0.901c-0.374,0.594-0.562,1.631-0.562,3.108v5.729h-2.759V215.764z"/>
		<path d="M95.76,209.812v3.362c-1.645-1.375-3.346-2.063-5.103-2.063c-1.937,0-3.568,0.697-4.895,2.089
			c-1.335,1.384-2.002,3.075-2.002,5.077c0,1.979,0.667,3.646,2.002,5.006c1.334,1.359,2.97,2.037,4.906,2.037
			c1.001,0,1.852-0.161,2.553-0.487c0.391-0.162,0.795-0.382,1.215-0.658c0.418-0.276,0.858-0.61,1.323-1.002v3.437
			c-1.629,0.925-3.338,1.387-5.127,1.387c-2.693,0-4.993-0.939-6.897-2.82c-1.896-1.896-2.844-4.182-2.844-6.859
			c0-2.399,0.793-4.541,2.381-6.422c1.953-2.303,4.479-3.453,7.58-3.453C92.545,208.438,94.18,208.896,95.76,209.812z"/>
		<path d="M98.262,221.622c0-1.718,0.613-3.179,1.844-4.382c1.229-1.205,2.726-1.807,4.492-1.807c1.773,0,3.279,0.604,4.517,1.817
			c1.221,1.213,1.831,2.702,1.831,4.468c0,1.782-0.614,3.276-1.844,4.479c-1.237,1.196-2.756,1.795-4.553,1.795
			c-1.783,0-3.277-0.61-4.48-1.831C98.863,224.959,98.262,223.445,98.262,221.622z M101.068,221.671
			c0,1.188,0.317,2.128,0.953,2.819c0.649,0.701,1.51,1.051,2.576,1.051c1.073,0,1.932-0.346,2.573-1.038
			c0.644-0.69,0.965-1.614,0.965-2.771s-0.321-2.08-0.965-2.771c-0.649-0.699-1.51-1.05-2.573-1.05c-1.052,0-1.9,0.351-2.554,1.05
			C101.395,219.661,101.068,220.564,101.068,221.671z"/>
		<path d="M113.289,221.622c0-1.718,0.613-3.179,1.844-4.382c1.229-1.205,2.725-1.807,4.492-1.807c1.773,0,3.279,0.604,4.516,1.817
			c1.221,1.213,1.832,2.702,1.832,4.468c0,1.782-0.615,3.276-1.844,4.479c-1.238,1.196-2.756,1.795-4.553,1.795
			c-1.783,0-3.277-0.61-4.48-1.831C113.891,224.959,113.289,223.445,113.289,221.622z M116.096,221.671
			c0,1.188,0.318,2.128,0.953,2.819c0.65,0.701,1.51,1.051,2.576,1.051c1.074,0,1.932-0.346,2.574-1.038
			c0.643-0.69,0.965-1.614,0.965-2.771s-0.322-2.08-0.965-2.771c-0.65-0.699-1.51-1.05-2.574-1.05c-1.051,0-1.9,0.351-2.553,1.05
			C116.422,219.661,116.096,220.564,116.096,221.671z"/>
		<path d="M131.625,234.122h-2.748v-18.358h2.748v1.293c1.082-1.082,2.311-1.623,3.686-1.623c1.638,0,2.982,0.603,4.041,1.808
			c1.074,1.194,1.611,2.704,1.611,4.528c0,1.781-0.533,3.268-1.6,4.455c-1.059,1.18-2.394,1.771-4.004,1.771
			c-1.392,0-2.637-0.558-3.734-1.672V234.122z M138.154,221.781c0-1.141-0.309-2.067-0.928-2.783
			c-0.627-0.725-1.416-1.087-2.367-1.087c-1.01,0-1.828,0.351-2.453,1.05c-0.627,0.7-0.941,1.619-0.941,2.76
			c0,1.114,0.314,2.033,0.941,2.758c0.617,0.709,1.432,1.062,2.441,1.062c0.95,0,1.735-0.357,2.354-1.074
			C137.838,223.75,138.154,222.855,138.154,221.781z"/>
		<path d="M154.695,222.354h-8.521c0.072,0.978,0.392,1.754,0.951,2.332c0.562,0.569,1.281,0.854,2.16,0.854
			c0.685,0,1.25-0.163,1.696-0.488c0.439-0.325,0.939-0.928,1.502-1.807l2.318,1.293c-0.357,0.61-0.736,1.134-1.135,1.569
			c-0.398,0.435-0.826,0.793-1.281,1.074c-0.457,0.279-0.949,0.484-1.477,0.615c-0.529,0.13-1.104,0.195-1.723,0.195
			c-1.773,0-3.197-0.569-4.271-1.709c-1.074-1.147-1.611-2.67-1.611-4.565c0-1.88,0.521-3.401,1.562-4.565
			c1.049-1.146,2.441-1.721,4.174-1.721c1.75,0,3.133,0.558,4.15,1.672c1.01,1.107,1.514,2.642,1.514,4.603L154.695,222.354z
			 M151.875,220.107c-0.383-1.465-1.305-2.196-2.77-2.196c-0.334,0-0.648,0.051-0.941,0.151c-0.293,0.104-0.559,0.25-0.799,0.439
			c-0.24,0.191-0.445,0.421-0.617,0.689c-0.17,0.269-0.301,0.574-0.391,0.916H151.875L151.875,220.107z"/>
		<path d="M157.697,215.764h2.748v1.062c0.504-0.528,0.951-0.892,1.342-1.086c0.398-0.203,0.871-0.306,1.416-0.306
			c0.725,0,1.48,0.236,2.271,0.707l-1.259,2.517c-0.521-0.375-1.028-0.562-1.524-0.562c-1.498,0-2.246,1.131-2.246,3.395v6.164
			h-2.748V215.764z"/>
	</g>
</g>
</svg>
