<?xml version="1.0" encoding="utf-8"?>
<!-- Generator: Adobe Illustrator 16.0.4, SVG Export Plug-In . SVG Version: 6.00 Build 0)  -->
<!DOCTYPE svg PUBLIC "-//W3C//DTD SVG 1.1//EN" "http://www.w3.org/Graphics/SVG/1.1/DTD/svg11.dtd">
<svg version="1.1" id="Layer_1" xmlns="http://www.w3.org/2000/svg" xmlns:xlink="http://www.w3.org/1999/xlink" x="0px" y="0px"
	 width="180px" height="260px" viewBox="0 0 180 260" enable-background="new 0 0 180 260" xml:space="preserve">
<rect fill="#F8EB48" width="180" height="260"/>
<g>
	<path d="M24.139,92.975c-1.513-0.078-2.547-0.117-3.103-0.117c-0.843,0-1.561,0.043-2.151,0.13l0.078-0.6
		c0.339-0.052,0.571-0.154,0.698-0.307c0.125-0.152,0.189-0.415,0.189-0.789l0.013-5.476c0-0.278-0.032-0.465-0.098-0.561
		c-0.065-0.096-0.193-0.144-0.385-0.144l-0.443,0.026l-0.026-0.052l0.091-0.573c0.643,0.026,1.091,0.039,1.343,0.039
		c0.348,0,0.852-0.039,1.513-0.118l-0.052,0.587c-0.096,0.018-0.181,0.033-0.254,0.045c-0.074,0.013-0.139,0.033-0.195,0.059
		c-0.057,0.026-0.104,0.045-0.144,0.059c-0.039,0.013-0.074,0.048-0.104,0.104c-0.031,0.057-0.052,0.096-0.065,0.118
		c-0.013,0.021-0.026,0.074-0.039,0.156c-0.013,0.082-0.024,0.142-0.033,0.176c-0.018,0.174-0.026,0.339-0.026,0.495
		c-0.104,1.452-0.157,3.129-0.157,5.033c0,0.443,0.063,0.722,0.189,0.834c0.126,0.113,0.5,0.169,1.122,0.169
		c0.621,0,1.052-0.108,1.291-0.326c0.239-0.217,0.433-0.726,0.581-1.525l0.574-0.065l0.039,0.065
		c-0.157,0.791-0.283,1.617-0.378,2.477L24.139,92.975z"/>
	<path d="M27.19,89.207l1.069,0.013l1.291-0.104l0.052,0.065l-0.156,0.678c-0.6-0.017-1.054-0.026-1.363-0.026
		s-0.615,0.022-0.919,0.065c-0.026,0.661-0.039,1.193-0.039,1.597c0,0.404,0.041,0.639,0.124,0.704
		c0.083,0.065,0.356,0.098,0.821,0.098c0.465,0,0.817-0.028,1.056-0.085c0.239-0.056,0.411-0.163,0.515-0.319
		c0.104-0.156,0.187-0.43,0.248-0.821l0.574-0.052l0.052,0.065c-0.13,0.574-0.226,1.165-0.287,1.773l-0.079,0.065
		c-1.443-0.044-2.412-0.065-2.907-0.065c-0.73,0-1.374,0.035-1.93,0.104l0.065-0.548c0.322-0.035,0.539-0.113,0.652-0.235
		c0.113-0.122,0.169-0.33,0.169-0.625l0.013-4.133c0-0.217-0.026-0.363-0.078-0.437c-0.052-0.074-0.156-0.111-0.313-0.111
		l-0.352,0.013l-0.026-0.052l0.078-0.496c0.617,0.018,1.402,0.026,2.354,0.026s1.775-0.039,2.471-0.117l0.039,0.065
		c-0.122,0.539-0.204,1.122-0.248,1.748l-0.626,0.052c0.018-0.191,0.026-0.334,0.026-0.43c0-0.321-0.083-0.519-0.248-0.593
		c-0.165-0.074-0.506-0.111-1.023-0.111s-0.811,0.02-0.88,0.059c-0.07,0.04-0.109,0.146-0.118,0.32L27.19,89.207z"/>
	<path d="M39.863,92.883c-0.426-0.017-0.728-0.026-0.906-0.026c-0.178,0-0.632,0.026-1.362,0.078l0.052-0.535
		c0.226-0.026,0.386-0.078,0.482-0.156c0.095-0.078,0.143-0.196,0.143-0.352l-0.326-4.081h-0.065
		c-0.513,1.312-1.165,3.029-1.956,5.15l-0.378,0.078c-0.878-2.382-1.534-4.125-1.969-5.229h-0.065
		c-0.217,2.634-0.326,4.046-0.326,4.237c0,0.191,0.113,0.287,0.339,0.287h0.417l0.026,0.039l-0.091,0.521
		c-0.496-0.026-0.865-0.039-1.108-0.039l-0.952,0.078l0.052-0.535c0.226-0.026,0.387-0.093,0.482-0.202
		c0.096-0.109,0.161-0.298,0.196-0.567c0.304-2.434,0.457-3.864,0.457-4.29c0-0.174-0.068-0.302-0.202-0.385
		c-0.135-0.083-0.368-0.132-0.698-0.15l-0.039-0.065l0.091-0.431c0.574,0.035,0.978,0.052,1.212,0.052l0.848-0.039
		c0.574,1.791,1.134,3.377,1.682,4.759h0.065c0.53-1.356,1.108-2.934,1.734-4.732h0.196l0.665,0.013l1.134-0.065l0.026,0.039
		l-0.065,0.456c-0.305,0.035-0.518,0.094-0.639,0.176c-0.121,0.082-0.183,0.211-0.183,0.385c0,0.6,0.091,1.942,0.274,4.029
		c0.043,0.391,0.1,0.647,0.169,0.769c0.07,0.122,0.187,0.183,0.352,0.183l0.3-0.013l0.026,0.039L39.863,92.883z"/>
	<path d="M47.646,89.448c0,0.987-0.339,1.821-1.017,2.503c-0.678,0.683-1.495,1.023-2.451,1.023c-0.956,0-1.71-0.289-2.262-0.867
		s-0.828-1.36-0.828-2.347c0-0.986,0.334-1.819,1.004-2.497c0.669-0.678,1.484-1.017,2.445-1.017c0.96,0,1.719,0.287,2.275,0.86
		C47.368,87.679,47.646,88.461,47.646,89.448z M42.196,89.552c0,0.813,0.202,1.482,0.606,2.008c0.404,0.526,0.93,0.789,1.578,0.789
		s1.167-0.229,1.558-0.685c0.391-0.457,0.587-1.091,0.587-1.904c0-0.812-0.209-1.479-0.626-2.001
		c-0.417-0.521-0.95-0.782-1.597-0.782c-0.647,0-1.161,0.226-1.539,0.678C42.385,88.107,42.196,88.74,42.196,89.552z"/>
	<path d="M53.84,86.886h-0.391l-0.026-0.052l0.091-0.509c0.478,0.026,0.848,0.039,1.108,0.039l1.108-0.078l-0.052,0.535
		c-0.469,0.061-0.708,0.278-0.717,0.652l-0.156,5.606l-0.509,0.144c-1.338-1.947-2.594-3.699-3.768-5.254h-0.065l-0.039,3.95
		c0,0.166,0.026,0.278,0.078,0.339c0.052,0.061,0.139,0.091,0.261,0.091l0.521-0.013l0.039,0.039l-0.104,0.521
		c-0.487-0.026-0.882-0.039-1.187-0.039l-1.083,0.078l0.065-0.535c0.426-0.052,0.643-0.265,0.652-0.639l0.144-4.303
		c0-0.217-0.063-0.367-0.189-0.45s-0.368-0.146-0.724-0.189l-0.052-0.065l0.091-0.443c0.426,0.035,0.756,0.052,0.991,0.052
		l0.795-0.039c1.052,1.547,2.19,3.134,3.416,4.759h0.065l-0.013-3.768C54.192,87.029,54.074,86.886,53.84,86.886z"/>
	<path d="M64.792,85.047c0.469,0.365,0.704,0.839,0.704,1.421c0,1.139-0.639,1.999-1.917,2.582l1.435,2.269
		c0.252,0.417,0.497,0.707,0.736,0.867s0.533,0.241,0.88,0.241l0.052,0.052l-0.079,0.443l-1.108,0.143
		c-0.218,0-0.45-0.111-0.698-0.333s-0.476-0.523-0.685-0.906l-1.395-2.53h-1.082l-0.039,1.943c0,0.469,0.052,0.765,0.156,0.887
		s0.365,0.183,0.782,0.183l0.026,0.052l-0.118,0.548c0-0.009-0.461-0.022-1.382-0.039l-1.5,0.039l0.117-0.587
		c0.409-0.043,0.676-0.132,0.802-0.267c0.125-0.135,0.189-0.389,0.189-0.763l0.013-5.476c0-0.278-0.032-0.465-0.098-0.561
		c-0.065-0.096-0.193-0.144-0.385-0.144l-0.443,0.026l-0.026-0.052l0.091-0.573c0.634,0.026,1.117,0.039,1.447,0.039l1.604-0.052
		C63.684,84.5,64.322,84.683,64.792,85.047z M64.414,86.782c0-1.147-0.795-1.721-2.386-1.721c-0.087,0-0.146,0.02-0.176,0.059
		c-0.03,0.039-0.05,0.12-0.059,0.241c-0.078,1.33-0.122,2.399-0.13,3.208l1.343,0.13c0.322-0.078,0.63-0.27,0.926-0.574
		c0.122-0.13,0.232-0.315,0.333-0.554C64.364,87.332,64.414,87.068,64.414,86.782z"/>
	<path d="M73.292,92.883c-0.53-0.017-0.925-0.026-1.186-0.026c-0.409,0-0.957,0.03-1.643,0.091l-0.039-0.065l0.039-0.469
		c0.365-0.026,0.61-0.065,0.737-0.117c0.126-0.052,0.189-0.144,0.189-0.274s-0.031-0.274-0.091-0.43l-0.313-1.004
		c-0.174-0.009-0.461-0.013-0.86-0.013c-0.4,0-0.848,0.026-1.343,0.078c-0.304,0.809-0.456,1.252-0.456,1.33
		c0,0.261,0.204,0.391,0.613,0.391H69.5l0.039,0.052l-0.078,0.496c-0.53-0.044-1.03-0.065-1.5-0.065l-1.199,0.026l0.078-0.534
		c0.191-0.026,0.343-0.093,0.456-0.202c0.113-0.109,0.226-0.293,0.339-0.554l2.047-5.176l0.926-0.169l0.091,0.013
		c0.608,2.19,1.16,3.985,1.656,5.385c0.087,0.252,0.198,0.428,0.333,0.528c0.135,0.1,0.35,0.163,0.646,0.189l0.026,0.052
		L73.292,92.883z M69.876,90.041c0.304,0,0.622-0.017,0.952-0.052l-0.795-2.529h-0.091l-0.952,2.582L69.876,90.041L69.876,90.041z"
		/>
	<path d="M74.205,86.338l1.33,0.026l1.304-0.091l-0.052,0.535c-0.287,0.035-0.478,0.089-0.574,0.163
		c-0.096,0.074-0.152,0.211-0.169,0.411c-0.096,1.704-0.143,3.125-0.143,4.264c0,0.278,0.03,0.465,0.091,0.561
		c0.061,0.096,0.183,0.144,0.365,0.144l0.535-0.039l0.026,0.052l-0.091,0.521c-0.634-0.017-1.078-0.026-1.33-0.026
		c-0.461,0-0.935,0.039-1.421,0.117l0.065-0.534c0.33-0.061,0.552-0.15,0.665-0.268c0.113-0.117,0.169-0.319,0.169-0.606
		l0.013-4.146c0-0.217-0.026-0.363-0.078-0.437c-0.052-0.074-0.156-0.111-0.313-0.111l-0.43,0.013l-0.026-0.052L74.205,86.338z"/>
	<path d="M83.202,86.886h-0.391l-0.026-0.052l0.091-0.509c0.478,0.026,0.848,0.039,1.108,0.039l1.108-0.078l-0.052,0.535
		c-0.469,0.061-0.708,0.278-0.717,0.652l-0.156,5.606l-0.509,0.144c-1.338-1.947-2.594-3.699-3.768-5.254h-0.065l-0.039,3.95
		c0,0.166,0.026,0.278,0.078,0.339c0.052,0.061,0.139,0.091,0.261,0.091l0.521-0.013l0.039,0.039l-0.104,0.521
		c-0.487-0.026-0.882-0.039-1.187-0.039l-1.083,0.078l0.065-0.535c0.426-0.052,0.643-0.265,0.652-0.639l0.144-4.303
		c0-0.217-0.063-0.367-0.189-0.45s-0.368-0.146-0.724-0.189l-0.052-0.065l0.091-0.443c0.426,0.035,0.756,0.052,0.991,0.052
		l0.795-0.039c1.052,1.547,2.19,3.134,3.416,4.759h0.065l-0.013-3.768C83.554,87.029,83.436,86.886,83.202,86.886z"/>
	<path d="M89.042,92.962l-1.486-0.104c-0.382,0-0.817,0.039-1.304,0.117l0.065-0.534c0.322-0.061,0.539-0.15,0.652-0.268
		c0.113-0.117,0.169-0.315,0.169-0.593l0.013-4.172c0-0.208-0.026-0.35-0.078-0.423c-0.052-0.073-0.152-0.111-0.3-0.111
		l-0.365,0.013l-0.039-0.052l0.078-0.496c0.583,0.018,1.004,0.026,1.265,0.026l1.356-0.052c0.687,0,1.217,0.135,1.59,0.404
		c0.374,0.27,0.562,0.656,0.562,1.161c0,0.348-0.111,0.661-0.335,0.938c-0.222,0.278-0.515,0.487-0.88,0.626
		c0.478,0.096,0.867,0.276,1.167,0.541c0.302,0.265,0.451,0.593,0.451,0.984c0,0.557-0.253,1.028-0.757,1.415
		C90.364,92.769,89.755,92.962,89.042,92.962z M88.326,92.173c0.173,0.1,0.469,0.15,0.886,0.15s0.741-0.104,0.972-0.313
		c0.23-0.208,0.345-0.495,0.345-0.86c0-0.695-0.448-1.121-1.343-1.278l-1.082,0.013l-0.039,1.773
		C88.065,91.901,88.151,92.073,88.326,92.173z M90.19,88.072c0-0.791-0.596-1.188-1.786-1.188c-0.07,0-0.118,0.018-0.144,0.052
		c-0.061,0.087-0.104,0.852-0.13,2.295c0.721,0.061,1.117,0.081,1.187,0.059c0.069-0.021,0.156-0.063,0.261-0.124
		c0.104-0.061,0.196-0.135,0.274-0.222C90.077,88.729,90.19,88.438,90.19,88.072z"/>
	<path d="M99.395,89.448c0,0.987-0.338,1.821-1.017,2.503c-0.679,0.683-1.495,1.023-2.451,1.023s-1.711-0.289-2.263-0.867
		c-0.553-0.578-0.828-1.36-0.828-2.347c0-0.986,0.335-1.819,1.004-2.497c0.67-0.678,1.484-1.017,2.445-1.017
		c0.96,0,1.719,0.287,2.275,0.86C99.116,87.681,99.395,88.461,99.395,89.448z M93.943,89.552c0,0.813,0.203,1.482,0.605,2.008
		c0.404,0.526,0.932,0.789,1.578,0.789s1.166-0.229,1.559-0.685c0.393-0.457,0.588-1.091,0.588-1.904
		c0-0.812-0.209-1.479-0.627-2.001c-0.416-0.521-0.949-0.782-1.599-0.782s-1.159,0.226-1.537,0.678
		C94.133,88.107,93.943,88.74,93.943,89.552z"/>
	<path d="M100.073,86.338c0.562,0.018,0.969,0.026,1.213,0.026c0.469,0,1.008-0.035,1.616-0.104l0.039,0.078l-0.053,0.469
		c-0.365,0.026-0.604,0.065-0.719,0.117c-0.111,0.052-0.169,0.144-0.169,0.274c0,0.244,0.408,1.765,1.228,4.562h0.078
		c0.174-0.426,0.432-1.108,0.773-2.047c0.344-0.939,0.562-1.534,0.658-1.786c-0.018-0.052-0.038-0.104-0.064-0.157
		c-0.044-0.122-0.087-0.261-0.131-0.417c-0.087-0.287-0.387-0.448-0.898-0.482l-0.025-0.039l0.078-0.496
		c0.592,0.018,1.005,0.026,1.238,0.026c0.426,0,0.969-0.035,1.631-0.104l0.039,0.078l-0.039,0.469
		c-0.365,0.026-0.606,0.065-0.726,0.117c-0.116,0.052-0.176,0.139-0.176,0.261c0,0.218,0.408,1.743,1.228,4.577h0.09
		c0.277-0.678,0.617-1.575,1.018-2.692c0.4-1.117,0.602-1.741,0.602-1.871c0-0.13-0.052-0.222-0.149-0.274
		c-0.101-0.052-0.276-0.078-0.528-0.078h-0.495l-0.024-0.052l0.078-0.495c0.547,0.043,1.043,0.065,1.484,0.065l1.161-0.026
		l-0.078,0.535c-0.198,0.018-0.342,0.057-0.424,0.117c-0.083,0.061-0.159,0.191-0.229,0.391l-2.15,5.424l-0.928,0.222
		c-0.067-0.417-0.48-1.782-1.236-4.094h-0.064l-1.42,3.872l-0.939,0.222c-0.6-2.095-1.174-3.946-1.721-5.554
		c-0.123-0.374-0.428-0.574-0.914-0.6c0-0.009-0.008-0.022-0.024-0.039L100.073,86.338z"/>
</g>
<g>
	<defs>
		<rect id="SVGID_1_" x="1" y="-0.5" width="179" height="259"/>
	</defs>
	<clipPath id="SVGID_2_">
		<use xlink:href="#SVGID_1_"  overflow="visible"/>
	</clipPath>
	<g clip-path="url(#SVGID_2_)">
		<defs>
			<rect id="SVGID_3_" x="-36.237" y="-44.531" width="300.96" height="214.8"/>
		</defs>
		<clipPath id="SVGID_4_">
			<use xlink:href="#SVGID_3_"  overflow="visible"/>
		</clipPath>
		<g transform="matrix(1 0 0 1 0 0)" clip-path="url(#SVGID_4_)" enable-background="new    ">
			
				<image overflow="visible" width="1258" height="900" xlink:href="B97B65558F6E74F6.png"  transform="matrix(0.2392 0 0 0.2387 -36.2373 -44.5312)">
			</image>
		</g>
	</g>
</g>
<g>
	<path d="M22.243,106.873c-0.437,0.227-0.985,0.34-1.646,0.34c-0.661,0-1.195-0.204-1.604-0.612
		c-0.408-0.408-0.612-0.956-0.612-1.642c0-0.953,0.303-1.75,0.91-2.395c0.607-0.644,1.358-0.965,2.254-0.965
		c0.374,0,0.865,0.065,1.472,0.196l0.025,0.051c-0.159,0.42-0.287,0.885-0.383,1.395l-0.366,0.034
		c0.051-0.221,0.077-0.388,0.077-0.502c0-0.476-0.372-0.714-1.115-0.714c-0.629,0-1.143,0.245-1.54,0.736
		c-0.397,0.49-0.595,1.13-0.595,1.918c0,0.646,0.145,1.161,0.434,1.544c0.289,0.383,0.684,0.574,1.183,0.574
		c0.737,0,1.264-0.454,1.582-1.361l0.366-0.034c-0.176,0.51-0.306,0.964-0.391,1.361L22.243,106.873z"/>
	<path d="M24.863,104.764l1.072,0.008c0.294,0,0.612-0.02,0.953-0.06c0.113-0.856,0.17-1.304,0.17-1.344s-0.011-0.078-0.034-0.115
		s-0.085-0.055-0.188-0.055l-0.221,0.009l-0.017-0.034l0.085-0.315c0,0.017,0.238,0.026,0.714,0.026l0.833-0.068l-0.06,0.332
		c-0.176,0.022-0.295,0.06-0.357,0.11c-0.062,0.051-0.105,0.139-0.128,0.264c-0.295,1.758-0.442,2.721-0.442,2.888
		s0.019,0.272,0.056,0.314c0.037,0.042,0.101,0.064,0.191,0.064l0.289-0.017c0.005,0.012,0.008,0.02,0.008,0.025l-0.093,0.332
		c-0.346-0.012-0.624-0.017-0.833-0.017h-0.23l-0.502,0.008h-0.093l0.093-0.323c0.204-0.005,0.345-0.052,0.421-0.14
		c0.076-0.088,0.132-0.271,0.166-0.549l0.119-0.97h-0.953l-1.089,0.068c-0.113,0.799-0.17,1.263-0.17,1.391
		c0,0.128,0.079,0.191,0.238,0.191l0.297-0.017c0.006,0.012,0.009,0.02,0.009,0.025l-0.102,0.332
		c-0.25-0.012-0.465-0.017-0.646-0.017c-0.182,0-0.395,0.008-0.638,0.025c-0.243,0.017-0.369,0.034-0.375,0.051l0.085-0.332
		c0.238-0.045,0.393-0.115,0.463-0.208c0.071-0.094,0.121-0.277,0.149-0.549c0.215-1.758,0.323-2.663,0.323-2.714
		c0-0.051-0.01-0.095-0.03-0.132s-0.081-0.055-0.183-0.055L24,103.205l-0.025-0.034l0.093-0.315
		c0.329,0.017,0.579,0.026,0.749,0.026l0.783-0.068l-0.06,0.34c-0.193,0.023-0.316,0.067-0.37,0.132
		c-0.054,0.065-0.101,0.211-0.14,0.438L24.863,104.764z"/>
	<path d="M30,105.325c-0.102,0.72-0.153,1.121-0.153,1.204c0,0.082,0.018,0.147,0.055,0.195c0.037,0.048,0.163,0.075,0.378,0.081
		l0.009,0.025l-0.094,0.306c-0.295-0.011-0.544-0.017-0.749-0.017l-0.817,0.026l0.103-0.34c0.209-0.022,0.352-0.067,0.425-0.132
		c0.073-0.065,0.122-0.194,0.145-0.387c0.232-1.883,0.349-2.85,0.349-2.901c0-0.051-0.01-0.095-0.03-0.132s-0.078-0.055-0.174-0.055
		l-0.221,0.009l-0.025-0.034l0.093-0.315c0.334,0.017,0.587,0.026,0.757,0.026l0.799-0.034c0.409,0,0.736,0.085,0.983,0.255
		s0.37,0.399,0.37,0.689c0,0.618-0.357,1.08-1.072,1.386l0.562,1.106c0.108,0.21,0.217,0.357,0.328,0.442
		c0.11,0.085,0.251,0.127,0.421,0.127l0.025,0.034l-0.068,0.255l-0.621,0.068c-0.25,0-0.465-0.207-0.646-0.621l-0.527-1.267
		L30,105.325L30,105.325z M31.541,103.921c0-0.488-0.36-0.731-1.081-0.731c-0.04,0-0.071,0.008-0.094,0.025
		c-0.057,0.062-0.156,0.627-0.297,1.693l0.664,0.068c0.238-0.096,0.394-0.184,0.468-0.264c0.074-0.079,0.136-0.153,0.187-0.221
		C31.489,104.344,31.541,104.154,31.541,103.921z"/>
	<path d="M33.573,102.858l0.825,0.026l0.816-0.068l-0.077,0.34c-0.182,0.023-0.306,0.058-0.374,0.106
		c-0.068,0.048-0.114,0.135-0.136,0.259c-0.306,1.73-0.459,2.725-0.459,2.986c0,0.187,0.083,0.281,0.247,0.281l0.34-0.017
		l0.017,0.025l-0.102,0.332c-0.391-0.012-0.667-0.017-0.825-0.017c-0.289,0-0.587,0.025-0.893,0.077l0.085-0.332
		c0.21-0.04,0.356-0.099,0.438-0.178c0.083-0.08,0.135-0.21,0.158-0.392c0.232-1.883,0.349-2.848,0.349-2.896
		c0-0.048-0.01-0.092-0.03-0.132s-0.081-0.06-0.183-0.06l-0.272,0.009c-0.006-0.017-0.008-0.028-0.008-0.034L33.573,102.858z"/>
	<path d="M36.737,107.188c-0.386,0-0.714-0.054-0.987-0.162l-0.136-0.06l-0.026-0.077c0.102-0.346,0.182-0.729,0.238-1.148
		l0.349-0.034c-0.022,0.188-0.034,0.363-0.034,0.528s0.025,0.289,0.076,0.374c0.091,0.142,0.295,0.213,0.613,0.213
		c0.317,0,0.568-0.068,0.753-0.204c0.184-0.136,0.276-0.298,0.276-0.485c0-0.188-0.062-0.339-0.187-0.455
		c-0.125-0.116-0.354-0.267-0.689-0.451c-0.334-0.184-0.578-0.356-0.731-0.515s-0.229-0.346-0.229-0.562
		c0-0.38,0.162-0.7,0.485-0.961c0.323-0.261,0.723-0.392,1.199-0.392c0.363,0,0.726,0.057,1.089,0.17l0.017,0.042
		c-0.113,0.346-0.21,0.723-0.289,1.131l-0.306,0.025l-0.043-0.034c0.045-0.182,0.068-0.346,0.068-0.494s-0.053-0.256-0.158-0.328
		c-0.105-0.071-0.285-0.106-0.54-0.106s-0.469,0.062-0.642,0.187c-0.173,0.125-0.259,0.287-0.259,0.485
		c0,0.199,0.17,0.408,0.51,0.629c0.074,0.045,0.19,0.111,0.349,0.196s0.286,0.159,0.383,0.221c0.096,0.062,0.201,0.139,0.315,0.229
		c0.221,0.176,0.332,0.391,0.332,0.646c0,0.403-0.167,0.734-0.502,0.995C37.696,107.058,37.265,107.188,36.737,107.188z"/>
	<path d="M41.144,106.448c0,0.227,0.111,0.34,0.332,0.34l0.375-0.017l0.017,0.025l-0.102,0.34c-0.459-0.017-0.8-0.025-1.021-0.025
		l-0.961,0.034l0.085-0.323c0.317-0.028,0.515-0.084,0.591-0.166c0.076-0.082,0.137-0.291,0.183-0.625l0.349-2.833
		c-0.442,0.012-0.714,0.04-0.816,0.085c-0.153,0.074-0.287,0.323-0.4,0.749l-0.374,0.034c0.102-0.419,0.181-0.822,0.238-1.208
		l0.077-0.06l0.562,0.077h2.084l0.604-0.077l0.06,0.06l-0.051,1.174l-0.375,0.034c-0.006-0.414-0.057-0.659-0.153-0.736
		c-0.097-0.077-0.363-0.12-0.8-0.132c-0.062,0.301-0.162,0.883-0.298,1.748C41.211,105.812,41.144,106.312,41.144,106.448z"/>
	<path d="M45.575,105.614l-0.68-0.009c-0.188,0-0.425,0.017-0.715,0.051l-0.306,0.655c-0.062,0.119-0.093,0.213-0.093,0.281
		c0,0.147,0.116,0.221,0.349,0.221h0.366v0.026l-0.068,0.314c-0.329-0.028-0.641-0.042-0.936-0.042l-0.757,0.017l0.093-0.34
		c0.125-0.011,0.23-0.052,0.315-0.124c0.085-0.071,0.17-0.194,0.255-0.37l1.676-3.377l0.57-0.119l0.06,0.009
		c0.215,1.412,0.425,2.586,0.629,3.521c0.034,0.17,0.089,0.288,0.166,0.353c0.076,0.065,0.205,0.106,0.387,0.124l0.017,0.025
		l-0.077,0.298c-0.329-0.012-0.573-0.017-0.731-0.017c-0.255,0-0.601,0.02-1.038,0.06l-0.017-0.042l0.06-0.289
		c0.25-0.017,0.414-0.047,0.493-0.089c0.08-0.043,0.119-0.109,0.119-0.2C45.711,106.476,45.666,106.165,45.575,105.614z
		 M44.92,105.282c0.193,0,0.391-0.011,0.595-0.034l-0.289-1.676h-0.06l-0.808,1.709L44.92,105.282L44.92,105.282z"/>
	<path d="M50.585,104.16l1.387,0.008c0.352,0,0.763-0.028,1.233-0.085c0.147-1.151,0.221-1.755,0.221-1.812
		s-0.014-0.109-0.042-0.157c-0.028-0.048-0.102-0.072-0.221-0.072l-0.281,0.017l-0.017-0.026l0.111-0.366
		c0.34,0.023,0.581,0.034,0.723,0.034c0.255,0,0.598-0.028,1.029-0.085l-0.068,0.366c-0.21,0.028-0.354,0.075-0.434,0.14
		s-0.133,0.18-0.162,0.345c-0.386,2.354-0.579,3.631-0.579,3.832c0,0.202,0.022,0.329,0.068,0.383
		c0.045,0.054,0.125,0.081,0.238,0.081l0.375-0.026c0.005,0.006-0.031,0.139-0.111,0.4c-0.437-0.017-0.774-0.025-1.012-0.025H52.78
		c-0.187,0-0.4,0.005-0.638,0.017l0.111-0.366c0.255-0.006,0.431-0.067,0.527-0.183c0.096-0.116,0.167-0.361,0.213-0.736l0.153-1.31
		c-0.584-0.005-1.004-0.008-1.259-0.008l-1.378,0.094c-0.153,1.094-0.23,1.686-0.23,1.773s0.003,0.157,0.009,0.208
		c0.011,0.102,0.107,0.153,0.289,0.153l0.374-0.025l0.009,0.034l-0.119,0.374c0-0.017-0.171-0.025-0.515-0.025
		c-0.344,0-0.662,0.011-0.957,0.034c-0.295,0.022-0.445,0.045-0.451,0.068l0.093-0.366c0.301-0.062,0.497-0.156,0.587-0.281
		c0.091-0.125,0.153-0.372,0.188-0.74c0.283-2.296,0.425-3.478,0.425-3.543c0-0.065-0.013-0.122-0.039-0.17
		c-0.025-0.048-0.101-0.072-0.225-0.072l-0.272,0.017l-0.017-0.026l0.103-0.366c0.391,0.023,0.666,0.034,0.825,0.034
		c0.255,0,0.564-0.028,0.927-0.085l-0.068,0.366c-0.244,0.04-0.4,0.102-0.468,0.187s-0.125,0.284-0.17,0.596L50.585,104.16z"/>
	<path d="M57.484,105.614l-0.68-0.009c-0.188,0-0.425,0.017-0.715,0.051l-0.306,0.655c-0.062,0.119-0.093,0.213-0.093,0.281
		c0,0.147,0.116,0.221,0.349,0.221h0.366v0.026l-0.068,0.314c-0.329-0.028-0.641-0.042-0.936-0.042l-0.757,0.017l0.093-0.34
		c0.125-0.011,0.23-0.052,0.315-0.124c0.085-0.071,0.17-0.194,0.255-0.37l1.676-3.377l0.57-0.119l0.06,0.009
		c0.215,1.412,0.425,2.586,0.629,3.521c0.034,0.17,0.089,0.288,0.166,0.353c0.076,0.065,0.205,0.106,0.387,0.124l0.017,0.025
		l-0.077,0.298c-0.329-0.012-0.573-0.017-0.731-0.017c-0.255,0-0.601,0.02-1.038,0.06l-0.017-0.042l0.06-0.289
		c0.25-0.017,0.414-0.047,0.493-0.089c0.08-0.043,0.119-0.109,0.119-0.2C57.62,106.476,57.575,106.165,57.484,105.614z
		 M56.829,105.282c0.193,0,0.391-0.011,0.595-0.034l-0.289-1.676h-0.06l-0.808,1.709L56.829,105.282L56.829,105.282z"/>
	<path d="M60.351,105.784c0,0.318,0.078,0.56,0.234,0.728c0.156,0.168,0.381,0.251,0.676,0.251c0.715,0,1.111-0.354,1.191-1.063
		c0.165-1.463,0.247-2.227,0.247-2.292c0-0.065-0.011-0.116-0.034-0.153s-0.08-0.055-0.17-0.055l-0.281,0.009l-0.008-0.026
		l0.085-0.323c0.334,0.017,0.587,0.026,0.757,0.026l0.697-0.06l-0.077,0.332c-0.193,0.028-0.319,0.064-0.378,0.106
		s-0.098,0.129-0.115,0.259l-0.272,2.195c-0.057,0.471-0.245,0.833-0.565,1.089c-0.32,0.255-0.722,0.383-1.204,0.383
		c-0.947,0-1.415-0.397-1.404-1.191c-0.005-0.08,0-0.167,0.017-0.264c0.187-1.48,0.281-2.253,0.281-2.318s-0.011-0.117-0.034-0.157
		c-0.022-0.04-0.082-0.06-0.178-0.06l-0.23,0.009l-0.008-0.026l0.093-0.323c0.34,0.017,0.604,0.026,0.792,0.026l0.731-0.06
		l-0.068,0.332c-0.165,0.023-0.278,0.06-0.34,0.111c-0.062,0.051-0.105,0.139-0.128,0.264l-0.289,1.939
		C60.357,105.543,60.351,105.648,60.351,105.784z"/>
	<path d="M65.106,107.188c-0.386,0-0.714-0.054-0.987-0.162l-0.136-0.06l-0.026-0.077c0.102-0.346,0.182-0.729,0.238-1.148
		l0.349-0.034c-0.022,0.188-0.034,0.363-0.034,0.528s0.025,0.289,0.076,0.374c0.091,0.142,0.295,0.213,0.613,0.213
		c0.317,0,0.568-0.068,0.753-0.204c0.184-0.136,0.276-0.298,0.276-0.485c0-0.188-0.062-0.339-0.187-0.455
		c-0.125-0.116-0.354-0.267-0.689-0.451c-0.334-0.184-0.578-0.356-0.731-0.515c-0.153-0.159-0.229-0.346-0.229-0.562
		c0-0.38,0.162-0.7,0.485-0.961c0.323-0.261,0.723-0.392,1.199-0.392c0.363,0,0.726,0.057,1.089,0.17l0.017,0.042
		c-0.113,0.346-0.21,0.723-0.289,1.131l-0.306,0.025l-0.043-0.034c0.045-0.182,0.068-0.346,0.068-0.494s-0.053-0.256-0.158-0.328
		c-0.105-0.071-0.285-0.106-0.54-0.106s-0.469,0.062-0.642,0.187s-0.259,0.287-0.259,0.485c0,0.199,0.17,0.408,0.51,0.629
		c0.074,0.045,0.19,0.111,0.349,0.196s0.286,0.159,0.383,0.221c0.096,0.062,0.201,0.139,0.315,0.229
		c0.221,0.176,0.332,0.391,0.332,0.646c0,0.403-0.167,0.734-0.502,0.995C66.064,107.058,65.633,107.188,65.106,107.188z"/>
	<path d="M72.736,106.78l0.008,0.025l-0.102,0.323c-0.255-0.012-0.438-0.017-0.549-0.017c-0.11,0-0.201,0.001-0.272,0.004
		c-0.071,0.002-0.138,0.007-0.2,0.013c-0.062,0.005-0.124,0.011-0.183,0.017c-0.06,0.005-0.126,0.011-0.2,0.017l0.076-0.332
		c0.255-0.034,0.4-0.145,0.434-0.332l0.127-2.731h-0.042c-0.766,1.571-1.318,2.711-1.659,3.42l-0.229,0.042
		c-0.182-0.777-0.454-1.931-0.817-3.462h-0.042c-0.369,1.821-0.553,2.779-0.553,2.875c0,0.096,0.062,0.145,0.187,0.145h0.264
		l0.017,0.017l-0.111,0.332c-0.306-0.017-0.533-0.025-0.68-0.025l-0.596,0.051l0.077-0.332c0.142-0.017,0.248-0.061,0.319-0.132
		c0.071-0.071,0.122-0.176,0.153-0.315c0.031-0.139,0.098-0.449,0.2-0.931c0.278-1.265,0.417-1.931,0.417-1.999
		c0-0.182-0.176-0.284-0.527-0.306l-0.017-0.034l0.077-0.264c0.357,0.022,0.609,0.034,0.757,0.034l0.51-0.034
		c0.188,0.993,0.428,2.05,0.723,3.173h0.034c0.437-0.902,0.921-1.954,1.455-3.156c0.028-0.006,0.068-0.009,0.119-0.009
		c0.153,0.012,0.286,0.017,0.4,0.017l0.723-0.034c0.006,0.011,0.009,0.02,0.009,0.025l-0.068,0.281
		c-0.193,0.022-0.331,0.06-0.413,0.11c-0.083,0.051-0.129,0.133-0.141,0.247c-0.062,0.533-0.105,1.418-0.127,2.654
		c0,0.04,0,0.116,0,0.229c0,0.114,0.014,0.208,0.042,0.285c0.028,0.077,0.099,0.115,0.212,0.115L72.736,106.78z"/>
	<path d="M75.917,105.614l-0.68-0.009c-0.188,0-0.425,0.017-0.715,0.051l-0.306,0.655c-0.062,0.119-0.093,0.213-0.093,0.281
		c0,0.147,0.116,0.221,0.349,0.221h0.366v0.026l-0.068,0.314c-0.329-0.028-0.641-0.042-0.936-0.042l-0.757,0.017l0.093-0.34
		c0.125-0.011,0.23-0.052,0.315-0.124c0.085-0.071,0.17-0.194,0.255-0.37l1.676-3.377l0.57-0.119l0.06,0.009
		c0.215,1.412,0.425,2.586,0.629,3.521c0.034,0.17,0.089,0.288,0.166,0.353c0.076,0.065,0.205,0.106,0.387,0.124l0.017,0.025
		l-0.077,0.298c-0.329-0.012-0.573-0.017-0.731-0.017c-0.255,0-0.601,0.02-1.038,0.06l-0.017-0.042l0.06-0.289
		c0.25-0.017,0.414-0.047,0.493-0.089c0.08-0.043,0.119-0.109,0.119-0.2C76.053,106.476,76.008,106.165,75.917,105.614z
		 M75.262,105.282c0.193,0,0.391-0.011,0.595-0.034l-0.289-1.676h-0.06l-0.808,1.709L75.262,105.282L75.262,105.282z"/>
	<path d="M81.455,103.419c0-0.147-0.065-0.221-0.195-0.221l-0.247,0.009l-0.017-0.034l0.102-0.323
		c0.294,0.022,0.521,0.034,0.68,0.034l0.698-0.06l-0.068,0.34c-0.301,0.04-0.471,0.178-0.511,0.417l-0.544,3.684l-0.306,0.093
		c-0.618-1.179-1.268-2.345-1.948-3.496h-0.042l-0.366,2.654c-0.011,0.102-0.003,0.173,0.026,0.212
		c0.028,0.04,0.082,0.06,0.162,0.06h0.323l0.025,0.025l-0.102,0.323c-0.301-0.017-0.547-0.025-0.74-0.025l-0.68,0.051l0.085-0.332
		c0.278-0.034,0.431-0.173,0.459-0.417c0.3-1.917,0.451-2.906,0.451-2.969c0-0.153-0.179-0.247-0.536-0.28
		c-0.011-0.023-0.017-0.037-0.017-0.043l0.077-0.272c0.267,0.022,0.474,0.034,0.621,0.034l0.485-0.034
		c0.539,1.026,1.128,2.084,1.77,3.173h0.034C81.347,104.31,81.455,103.442,81.455,103.419z"/>
	<path d="M86.474,103.419c0-0.147-0.065-0.221-0.195-0.221l-0.247,0.009l-0.017-0.034l0.102-0.323
		c0.294,0.022,0.521,0.034,0.68,0.034l0.698-0.06l-0.068,0.34c-0.301,0.04-0.471,0.178-0.511,0.417l-0.544,3.684l-0.306,0.093
		c-0.618-1.179-1.268-2.345-1.948-3.496h-0.042l-0.366,2.654c-0.011,0.102-0.003,0.173,0.026,0.212
		c0.028,0.04,0.082,0.06,0.162,0.06h0.323l0.025,0.025l-0.102,0.323c-0.301-0.017-0.547-0.025-0.74-0.025l-0.68,0.051l0.085-0.332
		c0.278-0.034,0.431-0.173,0.459-0.417c0.3-1.917,0.451-2.906,0.451-2.969c0-0.153-0.179-0.247-0.536-0.28
		c-0.011-0.023-0.017-0.037-0.017-0.043l0.077-0.272c0.267,0.022,0.474,0.034,0.621,0.034l0.485-0.034
		c0.539,1.026,1.128,2.084,1.77,3.173h0.034C86.366,104.31,86.474,103.442,86.474,103.419z"/>
</g>
<g>
	<path d="M121.536,239.812l1.183,0.018c0.578,0,0.867-0.016,0.867-0.043l0.061,0.332c-0.146,0.097-0.242,0.232-0.285,0.408
		s-0.062,0.471-0.062,0.885s0.021,0.697,0.062,0.852l-0.077,0.109c-0.238,0.098-0.542,0.178-0.91,0.242s-0.733,0.099-1.099,0.099
		c-0.781,0-1.399-0.239-1.854-0.72c-0.453-0.479-0.68-1.158-0.68-2.037s0.269-1.583,0.808-2.113
		c0.538-0.529,1.278-0.796,2.221-0.796c0.471,0,1.032,0.071,1.686,0.213l0.061,0.11c-0.113,0.454-0.188,0.977-0.222,1.564
		l-0.842,0.051c0.016-0.143,0.024-0.312,0.024-0.514c0-0.203-0.07-0.354-0.209-0.451c-0.14-0.101-0.373-0.148-0.701-0.148
		c-0.512,0-0.891,0.152-1.137,0.459s-0.369,0.792-0.369,1.455s0.125,1.184,0.375,1.561c0.248,0.379,0.601,0.566,1.055,0.566
		c0.146,0,0.289-0.02,0.425-0.057c0.137-0.037,0.269-0.092,0.392-0.166V240.9c0-0.164-0.022-0.272-0.072-0.326
		c-0.047-0.055-0.147-0.081-0.301-0.081h-0.435l-0.052-0.068L121.536,239.812z"/>
	<path d="M126.926,242.084c0.059-0.021,0.09-0.062,0.09-0.119c0-0.072-0.053-0.292-0.154-0.654
		c-0.117-0.006-0.271-0.009-0.453-0.009c-0.186,0-0.449,0.011-0.797,0.033c-0.125,0.353-0.188,0.562-0.188,0.626
		s0.02,0.109,0.061,0.137c0.039,0.025,0.119,0.037,0.238,0.037h0.264l0.053,0.061l-0.062,0.451
		c-0.396-0.021-0.742-0.035-1.037-0.035l-0.866,0.019l0.052-0.483c0.188-0.033,0.328-0.172,0.425-0.416l1.218-3.344l1.303-0.109
		l0.084,0.051c0.426,1.588,0.75,2.711,0.971,3.367c0.045,0.154,0.105,0.265,0.182,0.332c0.078,0.068,0.189,0.106,0.336,0.119
		l0.027,0.061l-0.053,0.425c-0.373-0.011-0.668-0.017-0.885-0.017l-1.232,0.051l-0.043-0.051l0.035-0.459
		C126.721,242.129,126.865,242.105,126.926,242.084z M126.25,240.682c0.129,0,0.291-0.007,0.484-0.019l-0.365-1.369h-0.111
		l-0.459,1.388H126.25L126.25,240.682z"/>
	<path d="M129.082,238.341l1.004,0.009l1.174-0.043l-0.06,0.527c-0.233,0.023-0.38,0.062-0.442,0.115s-0.1,0.16-0.111,0.318
		c-0.057,0.754-0.084,1.549-0.084,2.383c0,0.146,0.026,0.244,0.08,0.293c0.056,0.049,0.16,0.072,0.319,0.072
		c0.306,0,0.513-0.063,0.616-0.191c0.105-0.127,0.184-0.409,0.234-0.846l0.662-0.062l0.061,0.076
		c-0.073,0.505-0.133,1.03-0.18,1.582l-0.084,0.085c-0.748-0.034-1.315-0.053-1.701-0.053c-0.578,0-1.103,0.022-1.565,0.068
		l0.06-0.502c0.177-0.021,0.297-0.074,0.361-0.156c0.064-0.084,0.1-0.224,0.1-0.422l0.009-2.425c0-0.142-0.019-0.235-0.052-0.28
		c-0.034-0.045-0.103-0.066-0.205-0.066l-0.193,0.008l-0.052-0.066L129.082,238.341z"/>
	<path d="M133.003,238.341l1.004,0.009l1.175-0.043l-0.061,0.527c-0.232,0.023-0.38,0.062-0.441,0.115s-0.101,0.16-0.111,0.318
		c-0.057,0.754-0.086,1.549-0.086,2.383c0,0.146,0.027,0.244,0.082,0.293s0.16,0.072,0.318,0.072c0.307,0,0.512-0.063,0.616-0.191
		c0.104-0.127,0.185-0.409,0.233-0.846l0.664-0.062l0.06,0.076c-0.073,0.505-0.134,1.03-0.179,1.582l-0.086,0.085
		c-0.748-0.034-1.314-0.053-1.7-0.053c-0.578,0-1.101,0.022-1.565,0.068l0.061-0.502c0.177-0.021,0.298-0.074,0.361-0.156
		c0.064-0.084,0.098-0.224,0.098-0.422l0.01-2.425c0-0.142-0.018-0.235-0.053-0.28c-0.032-0.045-0.102-0.066-0.202-0.066
		l-0.195,0.008l-0.052-0.066L133.003,238.341z"/>
	<path d="M138.465,237.143l1.071,0.008l1.293-0.043c1.055,0,1.707,0.346,1.957,1.029c0.067,0.188,0.103,0.394,0.103,0.612
		c0,0.511-0.205,0.96-0.613,1.349c-0.406,0.389-0.881,0.584-1.42,0.584h-0.724l-0.009,0.629c0,0.317,0.021,0.521,0.068,0.611
		c0.045,0.092,0.151,0.137,0.322,0.137l0.375-0.023l0.032,0.051l-0.085,0.555c-0.499-0.019-0.835-0.025-1.008-0.025
		c-0.174,0-0.376,0.006-0.608,0.017c-0.577,0.028-0.87,0.046-0.876,0.052l0.067-0.578c0.231-0.039,0.389-0.106,0.468-0.205
		c0.08-0.096,0.119-0.264,0.119-0.502l0.009-3.23c0-0.184-0.021-0.305-0.055-0.365c-0.037-0.062-0.109-0.094-0.22-0.094
		l-0.297,0.018l-0.043-0.066L138.465,237.143z M141.672,238.868c0-0.357-0.1-0.618-0.298-0.782
		c-0.199-0.164-0.517-0.247-0.953-0.247c-0.079,0-0.128,0.009-0.146,0.025c-0.045,0.028-0.088,0.715-0.127,2.059l0.748,0.103
		C141.413,239.918,141.672,239.532,141.672,238.868z"/>
	<path d="M143.764,241.616v-2.476c0-0.125-0.014-0.209-0.041-0.252c-0.029-0.043-0.082-0.062-0.162-0.062l-0.246,0.008l-0.053-0.051
		l0.068-0.442c0.42,0.007,0.725,0.009,0.91,0.009l1.123-0.033c0.566,0,0.998,0.102,1.293,0.303c0.295,0.199,0.441,0.49,0.441,0.872
		c0,0.532-0.305,0.952-0.91,1.259l0.562,0.852c0.249,0.387,0.502,0.58,0.757,0.58l0.061,0.074l-0.061,0.393l-0.895,0.067
		c-0.327,0-0.588-0.205-0.772-0.612l-0.562-1.104h-0.467l-0.011,0.646c0,0.217,0.027,0.353,0.081,0.404
		c0.055,0.053,0.194,0.083,0.421,0.09l0.025,0.043l-0.068,0.459c0-0.013-0.327-0.018-0.985-0.018l-1.056,0.042l0.062-0.502
		c0.187-0.028,0.312-0.079,0.383-0.152C143.73,241.934,143.764,241.803,143.764,241.616z M145.993,239.617
		c0-0.442-0.329-0.664-0.987-0.664c-0.045,0-0.076,0.012-0.094,0.033c-0.034,0.035-0.062,0.479-0.085,1.337l0.604,0.067
		C145.807,240.244,145.993,239.984,145.993,239.617z"/>
	<path d="M149.564,240.127l0.629,0.009l0.801-0.06l0.068,0.076l-0.104,0.63c-0.368-0.011-0.613-0.017-0.733-0.017
		c-0.123,0-0.354,0.01-0.693,0.032c-0.006,0.138-0.01,0.351-0.01,0.644c0,0.291,0.021,0.461,0.067,0.507
		c0.045,0.045,0.216,0.067,0.506,0.067c0.294,0,0.498-0.043,0.617-0.127c0.119-0.088,0.204-0.291,0.255-0.613l0.663-0.051
		l0.062,0.075c-0.086,0.408-0.147,0.833-0.188,1.275l-0.085,0.075c-0.852-0.027-1.479-0.043-1.891-0.043
		c-0.59,0-1.121,0.022-1.6,0.068l0.061-0.502c0.188-0.021,0.314-0.074,0.384-0.156c0.067-0.084,0.104-0.224,0.104-0.422l0.008-2.416
		c0-0.143-0.016-0.236-0.043-0.285s-0.084-0.07-0.17-0.07l-0.203,0.008l-0.062-0.061l0.062-0.441c0.55,0.012,1.168,0.02,1.854,0.02
		c0.688,0,1.242-0.025,1.668-0.076l0.061,0.076c-0.08,0.414-0.135,0.826-0.162,1.24l-0.723,0.053
		c0.01-0.113,0.017-0.201,0.017-0.266c0-0.176-0.048-0.286-0.146-0.332c-0.097-0.045-0.273-0.066-0.531-0.066
		s-0.403,0.012-0.44,0.033c-0.037,0.022-0.058,0.079-0.058,0.172L149.564,240.127z"/>
	<path d="M153.623,242.688c-0.229,0-0.445-0.021-0.655-0.062s-0.413-0.104-0.612-0.19l-0.066-0.103
		c0.072-0.401,0.115-0.772,0.128-1.115l0.653-0.051c0,0.315,0.056,0.537,0.162,0.659s0.281,0.184,0.52,0.184
		s0.417-0.039,0.536-0.117c0.119-0.08,0.179-0.187,0.179-0.315c0-0.103-0.029-0.181-0.094-0.233
		c-0.064-0.052-0.107-0.095-0.141-0.123c-0.03-0.029-0.09-0.062-0.172-0.103s-0.143-0.068-0.183-0.085
		c-0.051-0.028-0.224-0.107-0.519-0.238s-0.539-0.285-0.731-0.464s-0.29-0.412-0.29-0.701c0-0.397,0.182-0.722,0.545-0.976
		c0.362-0.252,0.831-0.377,1.403-0.377c0.442,0,0.854,0.059,1.233,0.178l0.06,0.104c-0.085,0.362-0.146,0.742-0.179,1.14
		l-0.596,0.052l-0.068-0.052c0.007-0.062,0.01-0.123,0.01-0.188c0-0.182-0.053-0.312-0.153-0.396
		c-0.103-0.084-0.254-0.125-0.454-0.125c-0.201,0-0.361,0.039-0.478,0.115c-0.117,0.076-0.175,0.164-0.175,0.265
		s0.021,0.18,0.062,0.241s0.12,0.129,0.233,0.195c0.131,0.073,0.312,0.161,0.545,0.264c0.231,0.104,0.405,0.185,0.521,0.244
		c0.116,0.059,0.243,0.14,0.379,0.242c0.272,0.202,0.408,0.467,0.408,0.791c0,0.406-0.182,0.732-0.544,0.979
		C154.73,242.566,154.241,242.688,153.623,242.688z"/>
	<path d="M157.587,242.688c-0.228,0-0.444-0.021-0.655-0.062c-0.209-0.042-0.414-0.104-0.611-0.19l-0.067-0.103
		c0.074-0.401,0.116-0.772,0.128-1.115l0.655-0.051c0,0.315,0.054,0.537,0.16,0.659s0.28,0.184,0.52,0.184s0.417-0.039,0.536-0.117
		c0.119-0.08,0.18-0.187,0.18-0.315c0-0.103-0.031-0.181-0.095-0.233c-0.063-0.052-0.108-0.095-0.141-0.123
		c-0.03-0.029-0.089-0.062-0.171-0.103s-0.144-0.068-0.184-0.085c-0.051-0.028-0.224-0.107-0.519-0.238
		c-0.296-0.131-0.539-0.285-0.731-0.464c-0.193-0.179-0.289-0.412-0.289-0.701c0-0.397,0.182-0.722,0.545-0.976
		c0.361-0.252,0.83-0.377,1.402-0.377c0.441,0,0.854,0.059,1.232,0.178l0.061,0.104c-0.085,0.362-0.145,0.742-0.179,1.14
		l-0.595,0.052l-0.068-0.052c0.006-0.062,0.009-0.123,0.009-0.188c0-0.182-0.052-0.312-0.153-0.396
		c-0.103-0.084-0.254-0.125-0.455-0.125s-0.358,0.039-0.477,0.115c-0.116,0.076-0.175,0.164-0.175,0.265s0.021,0.18,0.063,0.241
		s0.119,0.129,0.232,0.195c0.131,0.073,0.312,0.161,0.545,0.264c0.23,0.104,0.406,0.185,0.521,0.244
		c0.115,0.059,0.242,0.14,0.379,0.242c0.271,0.202,0.408,0.467,0.408,0.791c0,0.406-0.183,0.732-0.545,0.979
		C158.695,242.566,158.205,242.688,157.587,242.688z"/>
</g>
<rect x="112.7" y="222.106" transform="matrix(0.7066 0.7076 -0.7076 0.7066 198.7244 -11.475)" fill="#DFE139" width="1.001" height="23.609"/>
<rect x="101.542" y="222.106" transform="matrix(0.7071 0.7071 -0.7071 0.7071 195.287 -3.6442)" fill="#DFE139" width="1.001" height="23.609"/>
<rect x="106.96" y="222.106" transform="matrix(0.7076 0.7066 -0.7066 0.7076 196.7075 -7.5365)" fill="#DFE139" width="1.001" height="23.609"/>
</svg>
