<?xml version="1.0" encoding="utf-8"?>
<!-- Generator: Adobe Illustrator 16.0.4, SVG Export Plug-In . SVG Version: 6.00 Build 0)  -->
<!DOCTYPE svg PUBLIC "-//W3C//DTD SVG 1.1//EN" "http://www.w3.org/Graphics/SVG/1.1/DTD/svg11.dtd">
<svg version="1.1" id="Layer_1" xmlns="http://www.w3.org/2000/svg" xmlns:xlink="http://www.w3.org/1999/xlink" x="0px" y="0px"
	 width="180px" height="260px" viewBox="0 0 180 260" enable-background="new 0 0 180 260" xml:space="preserve">
<g>
	<defs>
		<rect id="SVGID_1_" x="1" y="-0.5" width="179" height="259"/>
	</defs>
	<clipPath id="SVGID_2_">
		<use xlink:href="#SVGID_1_"  overflow="visible"/>
	</clipPath>
	<path clip-path="url(#SVGID_2_)" fill="#C2BEC0" d="M180,258"/>
	<rect clip-path="url(#SVGID_2_)" fill="#4CBB97" width="180" height="197.5"/>
	<rect y="169.25" clip-path="url(#SVGID_2_)" fill="#A9CEC4" width="180" height="90.75"/>
	<g clip-path="url(#SVGID_2_)">
		<path fill="#007A51" d="M20.526,221.736l-0.396-1.043h-2.475l-0.396,1.043h-1.076l2.119-5.395h1.181l2.119,5.395H20.526z
			 M18.893,217.289l-0.971,2.572h1.941L18.893,217.289z"/>
		<path fill="#007A51" d="M26.345,221.736l-2.814-3.856v3.856h-0.946v-5.395h0.97l2.758,3.736v-3.736h0.946v5.395H26.345z"/>
		<path fill="#007A51" d="M31.297,221.736v-5.395h0.946v5.395H31.297z"/>
		<path fill="#007A51" d="M37.555,221.736l-2.814-3.856v3.856h-0.946v-5.395h0.97l2.758,3.736v-3.736h0.946v5.395H37.555z"/>
		<path fill="#007A51" d="M41.304,221.736v-4.562H39.67v-0.833h4.213v0.833H42.25v4.562H41.304z"/>
		<path fill="#007A51" d="M48.167,221.736l-1.188-2.014h-0.946v2.014h-0.946v-5.395h2.37c1.067,0,1.771,0.688,1.771,1.69
			c0,0.954-0.631,1.479-1.286,1.585l1.326,2.119H48.167L48.167,221.736z M48.255,218.025c0-0.519-0.388-0.851-0.922-0.851h-1.302
			v1.716h1.302C47.867,218.891,48.255,218.551,48.255,218.025z"/>
		<path fill="#007A51" d="M50.339,219.044c0-1.608,1.14-2.79,2.757-2.79c1.609,0,2.758,1.182,2.758,2.79s-1.148,2.79-2.758,2.79
			C51.479,221.834,50.339,220.652,50.339,219.044z M54.884,219.044c0-1.114-0.704-1.948-1.788-1.948
			c-1.091,0-1.787,0.834-1.787,1.948c0,1.108,0.696,1.949,1.787,1.949C54.18,220.993,54.884,220.152,54.884,219.044z"/>
		<path fill="#007A51" d="M57.161,221.736v-5.395h2.005c1.69,0,2.823,1.116,2.823,2.693c0,1.593-1.132,2.701-2.814,2.701H57.161
			L57.161,221.736z M61.018,219.036c0-1.035-0.647-1.86-1.844-1.86h-1.067v3.729h1.059
			C60.339,220.904,61.018,220.062,61.018,219.036z"/>
		<path fill="#007A51" d="M63.303,219.604v-3.261h0.962v3.235c0,0.857,0.477,1.415,1.375,1.415c0.897,0,1.375-0.558,1.375-1.415
			v-3.235h0.962v3.261c0,1.334-0.768,2.23-2.337,2.23C64.08,221.834,63.303,220.938,63.303,219.604z"/>
		<path fill="#007A51" d="M69.292,219.044c0-1.666,1.237-2.79,2.83-2.79c1.084,0,1.763,0.559,2.16,1.205l-0.801,0.421
			c-0.259-0.453-0.785-0.784-1.359-0.784c-1.067,0-1.86,0.81-1.86,1.948c0,1.124,0.792,1.949,1.86,1.949
			c0.574,0,1.1-0.341,1.359-0.784l0.809,0.404c-0.412,0.646-1.083,1.221-2.167,1.221C70.529,221.834,69.292,220.702,69.292,219.044z
			"/>
		<path fill="#007A51" d="M76.728,221.736v-4.562h-1.633v-0.833h4.213v0.833h-1.634v4.562H76.728z"/>
		<path fill="#007A51" d="M80.51,221.736v-5.395h0.946v5.395H80.51z"/>
		<path fill="#007A51" d="M82.773,219.044c0-1.608,1.14-2.79,2.757-2.79c1.609,0,2.758,1.182,2.758,2.79s-1.148,2.79-2.758,2.79
			C83.913,221.834,82.773,220.652,82.773,219.044z M87.318,219.044c0-1.114-0.704-1.948-1.788-1.948
			c-1.092,0-1.787,0.834-1.787,1.948c0,1.108,0.695,1.949,1.787,1.949C86.614,220.993,87.318,220.152,87.318,219.044z"/>
		<path fill="#007A51" d="M93.355,221.736l-2.814-3.856v3.856h-0.946v-5.395h0.971l2.758,3.736v-3.736h0.945v5.395H93.355z"/>
		<path fill="#007A51" d="M99.593,221.736v-4.562h-1.634v-0.833h4.213v0.833h-1.633v4.562H99.593z"/>
		<path fill="#007A51" d="M102.938,219.044c0-1.608,1.141-2.79,2.758-2.79c1.609,0,2.759,1.182,2.759,2.79s-1.147,2.79-2.759,2.79
			C104.078,221.834,102.938,220.652,102.938,219.044z M107.482,219.044c0-1.114-0.703-1.948-1.787-1.948
			c-1.092,0-1.786,0.834-1.786,1.948c0,1.108,0.694,1.949,1.786,1.949C106.779,220.993,107.482,220.152,107.482,219.044z"/>
	</g>
	<g clip-path="url(#SVGID_2_)">
		<path fill="#F1F6F4" d="M26.262,239.854l-6.91-9.453v9.453h-3.085v-14.494h3.172l6.714,9.104v-9.104h3.085v14.494H26.262z"/>
		<path fill="#F1F6F4" d="M31.364,234.596c0-3.044,2.26-5.498,5.432-5.498c3.151,0,5.258,2.346,5.258,5.758v0.651h-7.801
			c0.196,1.282,1.239,2.347,3.021,2.347c0.891,0,2.107-0.369,2.781-1.021l1.238,1.825c-1.043,0.955-2.694,1.455-4.324,1.455
			C33.776,240.113,31.364,237.962,31.364,234.596z M36.796,231.355c-1.716,0-2.456,1.195-2.564,2.238h5.171
			C39.316,232.596,38.621,231.355,36.796,231.355z"/>
		<path fill="#F1F6F4" d="M51.133,239.854v-1.326c-0.717,0.783-1.977,1.587-3.693,1.587c-2.304,0-3.39-1.261-3.39-3.304v-7.453
			h2.759v6.367c0,1.455,0.76,1.935,1.934,1.935c1.064,0,1.912-0.587,2.39-1.195v-7.104h2.76v10.494H51.133L51.133,239.854z"/>
		<path fill="#F1F6F4" d="M56.627,239.854v-10.496h2.759v1.414c0.76-0.914,2.042-1.674,3.346-1.674v2.693
			c-0.195-0.043-0.435-0.064-0.761-0.064c-0.912,0-2.129,0.521-2.585,1.194v6.933H56.627L56.627,239.854z"/>
		<path fill="#F1F6F4" d="M70.749,239.854v-1.108c-0.717,0.869-1.956,1.369-3.325,1.369c-1.673,0-3.628-1.13-3.628-3.478
			c0-2.478,1.955-3.39,3.628-3.39c1.413,0,2.629,0.456,3.325,1.282v-1.325c0-1.065-0.913-1.761-2.304-1.761
			c-1.108,0-2.151,0.435-3.02,1.238l-1.086-1.935c1.282-1.151,2.934-1.651,4.585-1.651c2.412,0,4.606,0.956,4.606,3.978v6.778
			h-2.781V239.854z M70.749,237.332v-1.305c-0.457-0.607-1.326-0.935-2.217-0.935c-1.086,0-1.977,0.587-1.977,1.587
			s0.891,1.564,1.977,1.564C69.423,238.245,70.292,237.939,70.749,237.332z"/>
		<path fill="#F1F6F4" d="M76.242,239.854v-14.494h2.76v14.494H76.242z"/>
		<path fill="#F1F6F4" d="M86.386,237.811l1.695-2.412c1.021,1.064,2.608,1.979,4.606,1.979c1.717,0,2.521-0.761,2.521-1.607
			c0-2.521-8.344-0.762-8.344-6.215c0-2.412,2.086-4.41,5.498-4.41c2.304,0,4.216,0.694,5.648,2.021l-1.716,2.303
			c-1.174-1.086-2.737-1.586-4.216-1.586c-1.305,0-2.042,0.565-2.042,1.435c0,2.281,8.321,0.738,8.321,6.149
			c0,2.65-1.911,4.649-5.801,4.649C89.753,240.113,87.754,239.18,86.386,237.811z"/>
		<path fill="#F1F6F4" d="M99.682,234.596c0-3.218,2.346-5.498,5.562-5.498c2.151,0,3.455,0.935,4.149,1.891l-1.804,1.695
			c-0.5-0.74-1.26-1.132-2.217-1.132c-1.673,0-2.847,1.218-2.847,3.044c0,1.823,1.174,3.062,2.847,3.062
			c0.957,0,1.717-0.436,2.217-1.151l1.804,1.694c-0.694,0.956-1.998,1.912-4.149,1.912
			C102.027,240.113,99.682,237.832,99.682,234.596z"/>
		<path fill="#F1F6F4" d="M110.934,226.576c0-0.912,0.737-1.631,1.629-1.631c0.912,0,1.65,0.719,1.65,1.631
			c0,0.913-0.738,1.65-1.65,1.65C111.671,228.229,110.934,227.489,110.934,226.576z M111.193,239.854v-10.496h2.76v10.496H111.193z"
			/>
		<path fill="#F1F6F4" d="M116.016,234.596c0-3.044,2.26-5.498,5.433-5.498c3.151,0,5.259,2.346,5.259,5.758v0.651h-7.801
			c0.195,1.282,1.238,2.347,3.021,2.347c0.892,0,2.107-0.369,2.781-1.021l1.237,1.825c-1.043,0.955-2.693,1.455-4.323,1.455
			C118.428,240.113,116.016,237.962,116.016,234.596z M121.447,231.355c-1.717,0-2.455,1.195-2.563,2.238h5.171
			C123.969,232.596,123.273,231.355,121.447,231.355z"/>
		<path fill="#F1F6F4" d="M135.784,239.854v-6.346c0-1.456-0.761-1.956-1.935-1.956c-1.086,0-1.912,0.609-2.39,1.218v7.084h-2.76
			v-10.496h2.76v1.349c0.673-0.782,1.978-1.608,3.672-1.608c2.324,0,3.433,1.305,3.433,3.348v7.408H135.784L135.784,239.854z"/>
		<path fill="#F1F6F4" d="M140.605,234.596c0-3.218,2.347-5.498,5.562-5.498c2.151,0,3.455,0.935,4.149,1.891l-1.803,1.695
			c-0.5-0.74-1.262-1.132-2.217-1.132c-1.674,0-2.847,1.218-2.847,3.044c0,1.823,1.173,3.062,2.847,3.062
			c0.955,0,1.717-0.436,2.217-1.151l1.803,1.694c-0.694,0.956-1.998,1.912-4.149,1.912
			C142.952,240.113,140.605,237.832,140.605,234.596z"/>
		<path fill="#F1F6F4" d="M151.443,234.596c0-3.044,2.261-5.498,5.434-5.498c3.15,0,5.258,2.346,5.258,5.758v0.651h-7.801
			c0.195,1.282,1.238,2.347,3.021,2.347c0.891,0,2.106-0.369,2.78-1.021l1.238,1.825c-1.043,0.955-2.694,1.455-4.323,1.455
			C153.855,240.113,151.443,237.962,151.443,234.596z M156.877,231.355c-1.717,0-2.456,1.195-2.564,2.238h5.172
			C159.396,232.596,158.701,231.355,156.877,231.355z"/>
	</g>
	<g clip-path="url(#SVGID_2_)">
		<line fill="none" stroke="#007A51" stroke-width="2" stroke-linecap="round" x1="59.465" y1="117.784" x2="32.998" y2="140.189"/>
	</g>
	<g clip-path="url(#SVGID_2_)">
		<line fill="none" stroke="#007A51" stroke-width="2" stroke-linecap="round" x1="50.645" y1="68.97" x2="59.465" y2="117.784"/>
		<line fill="none" stroke="#007A51" stroke-width="2" stroke-linecap="round" x1="62.09" y1="73.203" x2="68.706" y2="109.813"/>
	</g>
	<g clip-path="url(#SVGID_2_)">
		<line fill="none" stroke="#007A51" stroke-width="2" stroke-linecap="round" x1="50.645" y1="68.97" x2="88.511" y2="36.924"/>
	</g>
	<g clip-path="url(#SVGID_2_)">
		<line fill="none" stroke="#007A51" stroke-width="2" stroke-linecap="round" x1="50.645" y1="68.97" x2="18.011" y2="57.242"/>
	</g>
	<g clip-path="url(#SVGID_2_)">
		<line fill="none" stroke="#007A51" stroke-width="2" stroke-linecap="round" x1="173.062" y1="21.639" x2="219.75" y2="38.417"/>
	</g>
	<g clip-path="url(#SVGID_2_)">
		<line fill="none" stroke="#007A51" stroke-width="2" stroke-linecap="round" x1="219.75" y1="38.417" x2="225.557" y2="70.555"/>
	</g>
	<g clip-path="url(#SVGID_2_)">
		
			<line fill="none" stroke="#007A51" stroke-width="2" stroke-linecap="round" x1="59.465" y1="117.784" x2="106.152" y2="134.562"/>
	</g>
	<g clip-path="url(#SVGID_2_)">
		<line fill="none" stroke="#007A51" stroke-width="2" stroke-linecap="round" x1="135.197" y1="53.693" x2="88.511" y2="36.924"/>
		<line fill="none" stroke="#007A51" stroke-width="2" stroke-linecap="round" x1="125.811" y1="61.489" x2="90.794" y2="48.912"/>
	</g>
	<g clip-path="url(#SVGID_2_)">
		
			<line fill="none" stroke="#007A51" stroke-width="2" stroke-linecap="round" x1="106.152" y1="134.562" x2="144.018" y2="102.508"/>
		
			<line fill="none" stroke="#007A51" stroke-width="2" stroke-linecap="round" x1="104.096" y1="122.534" x2="132.492" y2="98.493"/>
	</g>
	<g clip-path="url(#SVGID_2_)">
		<line fill="none" stroke="#007A51" stroke-width="2" stroke-linecap="round" x1="135.197" y1="53.693" x2="173.062" y2="21.639"/>
	</g>
	<g clip-path="url(#SVGID_2_)">
		
			<line fill="none" stroke="#007A51" stroke-width="2" stroke-linecap="round" x1="144.018" y1="102.508" x2="135.197" y2="53.693"/>
	</g>
	<g clip-path="url(#SVGID_2_)">
		<path fill="#F8F8F8" d="M16.379,209.124l0.264-0.363c0.18,0.195,0.472,0.371,0.843,0.371c0.384,0,0.532-0.188,0.532-0.366
			c0-0.561-1.551-0.213-1.551-1.191c0-0.444,0.384-0.784,0.972-0.784c0.412,0,0.751,0.137,0.996,0.376l-0.264,0.348
			c-0.212-0.212-0.496-0.308-0.775-0.308c-0.272,0-0.448,0.136-0.448,0.332c0,0.5,1.551,0.19,1.551,1.185
			c0,0.442-0.316,0.826-1.032,0.826C16.975,209.548,16.619,209.372,16.379,209.124z"/>
		<path fill="#F8F8F8" d="M19.067,207.073c0-0.144,0.116-0.261,0.26-0.261s0.26,0.117,0.26,0.261s-0.116,0.26-0.26,0.26
			S19.067,207.217,19.067,207.073z M19.115,209.5v-1.932h0.419v1.932H19.115z"/>
		<path fill="#F8F8F8" d="M22.649,209.5v-1.26c0-0.207-0.092-0.348-0.32-0.348c-0.188,0-0.364,0.127-0.448,0.256v1.352h-0.42v-1.26
			c0-0.207-0.088-0.348-0.316-0.348c-0.188,0-0.359,0.131-0.448,0.256v1.352h-0.419v-1.932h0.419v0.261
			c0.084-0.116,0.336-0.308,0.632-0.308c0.288,0,0.464,0.144,0.528,0.352c0.108-0.172,0.364-0.352,0.656-0.352
			c0.352,0,0.556,0.19,0.556,0.582v1.396H22.649z"/>
		<path fill="#F8F8F8" d="M23.699,208.532c0-0.556,0.376-1.011,0.992-1.011c0.616,0,0.991,0.455,0.991,1.011
			c0,0.552-0.375,1.016-0.991,1.016C24.075,209.548,23.699,209.084,23.699,208.532z M25.246,208.532c0-0.341-0.196-0.64-0.556-0.64
			c-0.356,0-0.556,0.299-0.556,0.64c0,0.344,0.2,0.644,0.556,0.644C25.05,209.176,25.246,208.876,25.246,208.532z"/>
		<path fill="#F8F8F8" d="M27.618,209.5v-1.207c0-0.304-0.156-0.4-0.392-0.4c-0.212,0-0.396,0.129-0.496,0.256v1.353h-0.419v-1.931
			h0.419v0.26c0.128-0.152,0.38-0.309,0.684-0.309c0.416,0,0.624,0.225,0.624,0.619v1.359H27.618z"/>
		<path fill="#F8F8F8" d="M31.898,209.5l-0.196-0.516h-1.223l-0.196,0.516h-0.532l1.047-2.667h0.584l1.047,2.667H31.898z
			 M31.09,207.301l-0.479,1.271h0.959L31.09,207.301z"/>
		<path fill="#F8F8F8" d="M32.907,209.5v-2.667h0.419v1.004c0.156-0.208,0.38-0.315,0.62-0.315c0.5,0,0.86,0.389,0.86,1.012
			c0,0.64-0.364,1.016-0.86,1.016c-0.248,0-0.472-0.119-0.62-0.312v0.265L32.907,209.5L32.907,209.5z M33.826,209.176
			c0.332,0,0.543-0.268,0.543-0.644c0-0.371-0.212-0.64-0.543-0.64c-0.2,0-0.404,0.115-0.5,0.26v0.768
			C33.422,209.064,33.626,209.176,33.826,209.176z"/>
		<path fill="#F8F8F8" d="M35.431,209.5v-1.932h0.419v0.279c0.148-0.184,0.38-0.326,0.628-0.326v0.414
			c-0.036-0.008-0.076-0.012-0.128-0.012c-0.18,0-0.416,0.12-0.5,0.26v1.315L35.431,209.5L35.431,209.5z"/>
		<path fill="#F8F8F8" d="M38.202,209.5v-0.212c-0.144,0.168-0.372,0.26-0.627,0.26c-0.312,0-0.668-0.216-0.668-0.64
			c0-0.447,0.352-0.633,0.668-0.633c0.264,0,0.483,0.084,0.627,0.248v-0.287c0-0.225-0.188-0.359-0.452-0.359
			c-0.216,0-0.408,0.08-0.572,0.248l-0.176-0.292c0.224-0.216,0.504-0.312,0.812-0.312c0.432,0,0.808,0.18,0.808,0.694v1.283
			L38.202,209.5L38.202,209.5z M38.202,209.061v-0.295c-0.1-0.133-0.28-0.201-0.459-0.201c-0.236,0-0.416,0.141-0.416,0.349
			c0,0.212,0.18,0.349,0.416,0.349C37.922,209.26,38.103,209.191,38.202,209.061z"/>
		<path fill="#F8F8F8" d="M41.737,209.5v-1.26c0-0.207-0.092-0.348-0.32-0.348c-0.188,0-0.364,0.127-0.448,0.256v1.352h-0.42v-1.26
			c0-0.207-0.088-0.348-0.316-0.348c-0.188,0-0.359,0.131-0.448,0.256v1.352h-0.419v-1.932h0.419v0.261
			c0.084-0.116,0.336-0.308,0.632-0.308c0.288,0,0.464,0.144,0.528,0.352c0.108-0.172,0.364-0.352,0.656-0.352
			c0.352,0,0.556,0.19,0.556,0.582v1.396H41.737z"/>
		<path fill="#F8F8F8" d="M42.787,208.532c0-0.556,0.376-1.011,0.992-1.011c0.616,0,0.991,0.455,0.991,1.011
			c0,0.552-0.375,1.016-0.991,1.016C43.163,209.548,42.787,209.084,42.787,208.532z M44.334,208.532c0-0.341-0.196-0.64-0.556-0.64
			c-0.356,0-0.556,0.299-0.556,0.64c0,0.344,0.2,0.644,0.556,0.644C44.138,209.176,44.334,208.876,44.334,208.532z"/>
		<path fill="#F8F8F8" d="M45.907,209.5l-0.788-1.932h0.452l0.563,1.447l0.564-1.447h0.448l-0.788,1.932H45.907z"/>
		<path fill="#F8F8F8" d="M47.563,207.073c0-0.144,0.116-0.261,0.26-0.261c0.144,0,0.26,0.117,0.26,0.261s-0.116,0.26-0.26,0.26
			C47.679,207.333,47.563,207.217,47.563,207.073z M47.611,209.5v-1.932h0.419v1.932H47.611z"/>
		<path fill="#F8F8F8" d="M48.659,208.532c0-0.583,0.412-1.011,0.996-1.011c0.38,0,0.604,0.158,0.74,0.344l-0.276,0.252
			c-0.108-0.152-0.256-0.225-0.444-0.225c-0.348,0-0.583,0.264-0.583,0.64s0.236,0.644,0.583,0.644c0.188,0,0.336-0.078,0.444-0.23
			l0.276,0.26c-0.136,0.18-0.36,0.344-0.74,0.344C49.071,209.548,48.659,209.116,48.659,208.532z"/>
		<path fill="#F8F8F8" d="M52.274,209.5v-1.215c0-0.305-0.152-0.393-0.388-0.393c-0.216,0-0.4,0.127-0.496,0.256v1.352h-0.42v-2.667
			h0.42v0.996c0.128-0.152,0.375-0.308,0.679-0.308c0.416,0,0.624,0.215,0.624,0.61v1.367L52.274,209.5L52.274,209.5z"/>
	</g>
</g>
</svg>
