<?xml version="1.0" encoding="utf-8"?>
<!-- Generator: Adobe Illustrator 16.0.4, SVG Export Plug-In . SVG Version: 6.00 Build 0)  -->
<!DOCTYPE svg PUBLIC "-//W3C//DTD SVG 1.1//EN" "http://www.w3.org/Graphics/SVG/1.1/DTD/svg11.dtd">
<svg version="1.1" id="Layer_1" xmlns="http://www.w3.org/2000/svg" xmlns:xlink="http://www.w3.org/1999/xlink" x="0px" y="0px"
	 width="180px" height="260px" viewBox="0 0 180 260" enable-background="new 0 0 180 260" xml:space="preserve">
<g>
	<defs>
		<rect id="SVGID_1_" x="1" y="-0.5" width="179" height="259"/>
	</defs>
	<clipPath id="SVGID_2_">
		<use xlink:href="#SVGID_1_"  overflow="visible"/>
	</clipPath>
	<rect x="-0.333" clip-path="url(#SVGID_2_)" fill="#EBC989" width="182.5" height="260"/>
	<g clip-path="url(#SVGID_2_)">
		<path d="M28.08,75.999c0.14,0,0.21,0.07,0.21,0.28c0.07,1.12,0.35,2.45,1.33,3.991c1.05,1.68,2.87,2.52,4.621,2.52
			c1.89,0,4.55-1.19,4.55-4.095c0-3.221-1.47-4.271-5.181-5.671c-1.12-0.42-3.43-1.4-5.11-2.94c-1.19-1.12-1.75-2.87-1.75-5.005
			c0-1.96,0.77-3.57,2.45-4.9c1.4-1.19,2.94-1.68,4.97-1.68c2.311,0,3.71,0.56,4.411,0.84c0.35,0.14,0.56,0.07,0.735-0.105
			l0.455-0.455c0.14-0.14,0.28-0.21,0.49-0.21c0.21,0,0.28,0.21,0.28,0.56c0,0.56,0.561,5.461,0.561,5.811
			c0,0.14-0.07,0.21-0.21,0.245l-0.56,0.175c-0.14,0.035-0.28,0-0.35-0.21c-0.35-0.98-0.91-2.38-2.17-3.71
			c-0.91-0.98-2.03-1.47-3.641-1.47c-2.8,0-3.92,2.24-3.92,3.535c0,1.19,0.14,2.24,0.98,3.15c0.91,0.91,2.87,1.75,4.271,2.17
			c2.03,0.63,3.71,1.33,5.04,2.73c1.12,1.19,1.75,2.661,1.75,5.006c0,4.271-2.8,7.771-7.421,7.771c-2.87,0-4.55-0.63-5.951-1.68
			c-0.42-0.28-0.63-0.42-0.84-0.42s-0.35,0.28-0.56,0.63c-0.21,0.35-0.35,0.42-0.63,0.42c-0.28,0-0.42-0.21-0.42-0.56
			c0.07-0.42,0.56-6.091,0.63-6.511c0.035-0.21,0.07-0.28,0.21-0.28L28.08,75.999z"/>
		<path d="M45.474,71.133c-0.28,0-0.49-0.14-0.49-0.49c0-0.28,0.21-0.49,0.665-0.666c0.98-0.35,4.025-2.94,4.795-4.41
			c0.14-0.28,0.35-0.35,0.56-0.35c0.28,0,0.42,0.21,0.42,0.49l-0.14,3.465h4.621c0.21,0,0.28,0.14,0.245,0.28l-0.35,1.47
			c-0.035,0.14-0.14,0.21-0.35,0.21h-4.236c-0.07,1.47-0.105,3.15-0.105,4.69v3.15c0,2.73,1.155,3.291,1.855,3.291
			c0.77,0,1.54-0.175,2.03-0.42c0.245-0.105,0.35-0.105,0.42,0.07l0.21,0.42c0.07,0.21,0,0.35-0.14,0.49
			c-0.49,0.35-1.96,1.4-4.41,1.4c-2.101,0-3.676-1.68-3.676-3.15c0-1.26,0.105-4.06,0.105-5.391v-4.55L45.474,71.133L45.474,71.133z
			"/>
		<path d="M59.369,74.809c0-1.61-0.28-2.17-1.331-2.73l-0.63-0.35c-0.21-0.07-0.28-0.14-0.28-0.28v-0.21
			c0-0.14,0.07-0.21,0.28-0.315l4.235-1.995c0.21-0.07,0.35-0.14,0.56-0.14s0.28,0.21,0.315,0.42l0.315,2.59h0.14
			c1.19-1.96,2.661-3.15,4.201-3.15c1.12,0,1.82,0.77,1.82,1.75s-0.98,1.89-1.891,1.89c-0.49,0-0.91-0.14-1.19-0.28
			c-0.28-0.21-0.63-0.28-0.98-0.28c-0.42,0-1.05,0.28-1.47,1.015c-0.28,0.49-0.42,1.26-0.42,1.715v6.686c0,1.12,0.28,1.47,0.98,1.47
			h1.54c0.21,0,0.28,0.07,0.28,0.245v0.805c0,0.175-0.07,0.245-0.245,0.245c-0.245,0-1.785-0.105-4.34-0.105
			c-2.45,0-3.815,0.105-4.096,0.105c-0.175,0-0.245-0.07-0.245-0.245v-0.77c0-0.21,0.07-0.28,0.315-0.28h1.225
			c0.56,0,0.91-0.28,0.91-0.945v-6.861H59.369z"/>
		<path d="M81.559,81.845h-0.21c-0.77,1.26-2.8,2.38-4.621,2.38c-1.26,0-2.38,0-3.605-1.54c-1.26-1.645-1.295-2.94-1.295-4.9
			c0-1.68,0.035-2.905,0.035-3.641c0-0.84,0-2.1-0.07-2.52c-0.105-0.875-0.595-1.19-1.225-1.26c-0.56-0.07-0.77-0.07-0.77-0.28
			v-0.63c0-0.21,0.07-0.28,0.42-0.28h4.201c0.21,0,0.385-0.035,0.525-0.07c0.14-0.035,0.28-0.07,0.385-0.07
			c0.21,0,0.35,0.21,0.35,0.42c0,0.35-0.14,1.96-0.14,4.375v2.205c0,1.4-0.245,3.781,0.7,5.25c0.7,1.05,1.47,0.98,2.24,0.98
			c0.84,0,1.891-0.56,2.451-1.33c0.14-0.21,0.385-0.7,0.385-1.12v-8.261c0-0.91-0.665-1.12-1.505-1.19c-0.63-0.07-0.7-0.14-0.7-0.28
			v-0.63c0-0.245,0.105-0.28,0.42-0.28h4.34c0.245,0,0.42-0.035,0.595-0.07c0.175-0.035,0.315-0.07,0.455-0.07
			c0.21,0,0.28,0.21,0.28,0.35c0,0.35-0.21,1.26-0.21,4.726v2.555c0,1.68,0,3.36,0.07,4.061c0.14,1.05,0.49,1.19,0.77,1.19
			c0.21,0,0.7,0,1.12-0.07c0.28-0.035,0.385,0,0.42,0.14l0.105,0.56c0.035,0.21-0.035,0.28-0.175,0.315l-4.341,1.226
			c-0.21,0.07-0.42,0.14-0.7,0.14c-0.28,0-0.455-0.14-0.49-0.42L81.559,81.845z"/>
		<path d="M102.068,81.109c0.104,0.105,0.14,0.245,0,0.42c-0.875,1.085-3.325,2.695-5.916,2.695c-2.381,0-4.271-0.63-5.601-2.31
			c-1.331-1.68-1.681-3.081-1.681-4.831c0-2.205,0.84-4.655,2.591-6.266c1.47-1.33,3.149-2.03,5.11-2.03c4.06,0,4.97,2.1,4.97,3.15
			c0,0.84-0.56,1.54-1.54,1.54c-1.189,0-1.75-0.84-2.1-1.75c-0.49-1.19-1.262-1.435-2.172-1.435c-1.398,0-3.149,1.575-3.149,4.06
			c0,2.101,0.069,3.536,1.364,5.671c0.945,1.54,2.486,1.89,3.605,1.89c1.75,0,2.836-0.595,3.78-1.33
			c0.069-0.07,0.21-0.07,0.315,0.035L102.068,81.109z"/>
		<path d="M103.432,71.133c-0.279,0-0.49-0.14-0.49-0.49c0-0.28,0.211-0.49,0.666-0.666c0.979-0.35,4.025-2.94,4.795-4.41
			c0.142-0.28,0.352-0.35,0.562-0.35c0.279,0,0.42,0.21,0.42,0.49l-0.141,3.465h4.621c0.21,0,0.278,0.14,0.245,0.28l-0.352,1.47
			c-0.035,0.14-0.14,0.21-0.35,0.21h-4.235c-0.069,1.47-0.104,3.15-0.104,4.69v3.15c0,2.73,1.154,3.291,1.854,3.291
			c0.771,0,1.54-0.175,2.03-0.42c0.245-0.105,0.35-0.105,0.42,0.07l0.21,0.42c0.069,0.21,0,0.35-0.14,0.49
			c-0.49,0.35-1.961,1.4-4.411,1.4c-2.101,0-3.675-1.68-3.675-3.15c0-1.26,0.104-4.06,0.104-5.391v-4.55L103.432,71.133
			L103.432,71.133z"/>
		<path d="M126.357,81.845h-0.211c-0.77,1.26-2.799,2.38-4.619,2.38c-1.26,0-2.381,0-3.605-1.54c-1.26-1.645-1.295-2.94-1.295-4.9
			c0-1.68,0.035-2.905,0.035-3.641c0-0.84,0-2.1-0.07-2.52c-0.104-0.875-0.595-1.19-1.225-1.26c-0.561-0.07-0.771-0.07-0.771-0.28
			v-0.63c0-0.21,0.07-0.28,0.42-0.28h4.2c0.21,0,0.386-0.035,0.525-0.07s0.28-0.07,0.385-0.07c0.21,0,0.351,0.21,0.351,0.42
			c0,0.35-0.141,1.96-0.141,4.375v2.205c0,1.4-0.245,3.781,0.7,5.25c0.7,1.05,1.471,0.98,2.239,0.98c0.841,0,1.892-0.56,2.451-1.33
			c0.141-0.21,0.385-0.7,0.385-1.12v-8.261c0-0.91-0.664-1.12-1.506-1.19c-0.629-0.07-0.699-0.14-0.699-0.28v-0.63
			c0-0.245,0.104-0.28,0.421-0.28h4.34c0.245,0,0.42-0.035,0.597-0.07c0.174-0.035,0.313-0.07,0.453-0.07
			c0.211,0,0.28,0.21,0.28,0.35c0,0.35-0.21,1.26-0.21,4.726v2.555c0,1.68,0,3.36,0.07,4.061c0.14,1.05,0.49,1.19,0.77,1.19
			c0.21,0,0.7,0,1.12-0.07c0.28-0.035,0.386,0,0.421,0.14l0.104,0.56c0.035,0.21-0.035,0.28-0.174,0.315l-4.342,1.226
			c-0.21,0.07-0.42,0.14-0.699,0.14s-0.455-0.14-0.49-0.42L126.357,81.845z"/>
		<path d="M135.736,74.809c0-1.61-0.28-2.17-1.33-2.73l-0.631-0.35c-0.211-0.07-0.279-0.14-0.279-0.28v-0.21
			c0-0.14,0.068-0.21,0.279-0.315l4.235-1.995c0.21-0.07,0.351-0.14,0.56-0.14c0.211,0,0.281,0.21,0.315,0.42l0.314,2.59h0.141
			c1.188-1.96,2.66-3.15,4.2-3.15c1.12,0,1.82,0.77,1.82,1.75s-0.98,1.89-1.892,1.89c-0.489,0-0.909-0.14-1.188-0.28
			c-0.28-0.21-0.631-0.28-0.98-0.28c-0.42,0-1.05,0.28-1.47,1.015c-0.28,0.49-0.421,1.26-0.421,1.715v6.686
			c0,1.12,0.279,1.47,0.98,1.47h1.539c0.211,0,0.28,0.07,0.28,0.245v0.805c0,0.175-0.069,0.245-0.245,0.245
			c-0.245,0-1.785-0.105-4.341-0.105c-2.45,0-3.815,0.105-4.095,0.105c-0.176,0-0.245-0.07-0.245-0.245v-0.77
			c0-0.21,0.069-0.28,0.313-0.28h1.227c0.56,0,0.91-0.28,0.91-0.945v-6.861H135.736z"/>
		<path d="M149.491,76.034c0,3.571,2.555,5.671,4.55,5.671c2.171,0,3.501-0.91,4.236-2.03c0.14-0.245,0.279-0.245,0.42-0.175
			l0.523,0.315c0.176,0.105,0.245,0.245,0,0.7c-0.734,1.331-2.52,3.71-6.369,3.71c-2.24,0-3.815-0.49-5.041-1.89
			c-1.61-1.855-1.961-3.605-1.961-5.775c0-1.925,0.211-3.221,1.715-5.181c1.472-1.89,3.047-2.59,6.092-2.59
			c3.99,0,5.285,4.166,5.285,5.601c0,0.525-0.351,0.56-0.979,0.56h-8.471V76.034L149.491,76.034z M153.831,73.688
			c0.735,0,1.155-0.21,1.155-0.49c0-1.05-0.351-3.116-2.17-3.116c-1.715,0-2.767,1.26-3.221,3.605L153.831,73.688L153.831,73.688z"
			/>
		<path d="M83.81,98.972c-0.374,0.408-0.816,0.697-1.479,0.918c-0.391,0.119-0.748,0.119-1.088,0.119
			c-0.629,0-1.173-0.51-1.173-1.462c0-0.782,0.34-1.547,1.564-2.091c1.054-0.51,1.7-0.782,2.074-1.054v-0.884
			c-0.034-0.34-0.068-0.748-0.272-0.952c-0.17-0.187-0.476-0.255-0.85-0.255c-0.306,0-0.714,0.102-0.986,0.306
			c-0.238,0.17-0.068,0.425-0.068,0.833c0,0.612-0.306,0.986-1.02,0.986c-0.306,0-0.578-0.204-0.578-0.578
			c0-0.476,0.272-1.02,0.782-1.394c0.714-0.544,1.632-0.952,2.753-0.952c0.952,0,1.258,0.204,1.564,0.476
			c0.374,0.34,0.408,0.816,0.408,1.275l0.034,2.686v0.815c0,0.918,0.136,1.19,0.442,1.19c0.238,0,0.476-0.136,0.544-0.272
			c0.068-0.102,0.102-0.102,0.17-0.068l0.204,0.136c0.068,0.034,0.102,0.102,0.034,0.272c-0.17,0.306-0.578,0.986-1.564,0.986
			c-0.646,0-1.19-0.306-1.428-1.037L83.81,98.972L83.81,98.972z M83.708,96.031c-0.748,0.476-1.87,0.765-1.87,2.006
			c0,0.697,0.374,1.037,0.782,1.037c0.476-0.034,1.088-0.51,1.088-0.816V96.031z"/>
		<path d="M89.453,92.648c0.136-0.068,0.238-0.136,0.34-0.136s0.17,0.068,0.204,0.204l0.136,0.884h0.102
			c0.204-0.238,0.51-0.51,0.85-0.68c0.408-0.238,0.851-0.408,1.36-0.408c0.578,0,1.121,0.102,1.496,0.408
			c0.746,0.544,0.935,1.054,0.935,1.751v2.448c0,0.544-0.019,1.292-0.019,1.632c0,0.374,0.205,0.476,0.408,0.476h0.477
			c0.152,0,0.203,0.034,0.203,0.119v0.391c0,0.085-0.032,0.119-0.135,0.119c-0.137,0-0.646-0.051-1.836-0.051
			c-1.021,0-1.563,0.051-1.666,0.051s-0.137-0.068-0.137-0.204v-0.289c0-0.103,0.034-0.136,0.204-0.136h0.34
			c0.138,0,0.271-0.102,0.308-0.408c0.051-0.442,0.066-0.918,0.066-1.598v-1.955c0-0.68-0.033-1.122-0.441-1.462
			c-0.34-0.306-0.646-0.306-1.021-0.306c-0.271,0-0.68,0.068-1.088,0.442c-0.272,0.272-0.357,0.748-0.357,1.207v3.502
			c0,0.374,0.085,0.578,0.324,0.578h0.306c0.137,0,0.17,0.034,0.17,0.153v0.306c0,0.102-0.033,0.17-0.135,0.17
			c-0.104,0-0.58-0.051-1.599-0.051c-1.054,0-1.598,0.051-1.7,0.051c-0.068,0-0.102-0.068-0.102-0.17v-0.323
			c0-0.103,0.034-0.136,0.17-0.136h0.34c0.204,0,0.442-0.068,0.442-0.34v-3.825c0-0.51-0.306-0.782-0.714-0.986l-0.136-0.068
			c-0.102-0.034-0.136-0.102-0.136-0.17v-0.136c0-0.068,0.068-0.136,0.17-0.17L89.453,92.648z"/>
		<path d="M103.801,97.017c0,0.646,0.034,1.326,0.17,1.496c0.17,0.204,0.477,0.272,0.715,0.306c0.237,0,0.306,0.034,0.34,0.102
			l0.033,0.204c0.034,0.102,0,0.17-0.102,0.204l-2.277,0.646c-0.103,0.034-0.205-0.034-0.238-0.17l-0.237-0.782
			c-0.544,0.578-1.599,0.986-2.38,0.986c-0.663,0-1.411-0.204-2.04-0.833c-0.714-0.697-1.054-1.411-1.054-2.499
			c0-1.173,0.306-2.125,1.188-3.077c0.681-0.714,1.496-1.088,2.517-1.088c0.646,0,1.189,0.102,1.599,0.238l-0.052-3.298
			c-0.018-0.578-0.152-0.816-1.07-0.986c-0.104-0.034-0.137-0.068-0.137-0.136v-0.306c0-0.068,0.033-0.102,0.137-0.136
			c0.85-0.102,1.972-0.204,2.414-0.306c0.203-0.034,0.306-0.068,0.441-0.068c0.067,0,0.135,0.102,0.103,0.306
			c-0.068,0.85-0.068,3.298-0.068,5.491L103.801,97.017L103.801,97.017z M102.033,94.79c0-0.272-0.034-0.578-0.17-0.816
			c-0.238-0.425-0.782-0.799-1.496-0.799c-0.408,0-0.85,0.102-1.174,0.51c-0.526,0.629-0.68,1.343-0.68,2.04
			c0,1.938,1.036,3.332,2.092,3.332c0.68,0,1.121-0.34,1.291-0.612c0.103-0.204,0.137-0.408,0.137-0.68V94.79L102.033,94.79z"/>
		<path d="M54.101,113.999c0.14,0,0.21,0.07,0.21,0.28c0.07,1.12,0.35,2.45,1.33,3.991c1.05,1.68,2.87,2.52,4.621,2.52
			c1.89,0,4.55-1.19,4.55-4.095c0-3.221-1.47-4.271-5.181-5.671c-1.12-0.42-3.43-1.4-5.11-2.94c-1.19-1.12-1.75-2.87-1.75-5.005
			c0-1.96,0.77-3.57,2.45-4.9c1.4-1.19,2.94-1.68,4.97-1.68c2.311,0,3.71,0.56,4.411,0.84c0.35,0.14,0.56,0.07,0.735-0.105
			l0.455-0.455c0.14-0.14,0.28-0.21,0.49-0.21s0.28,0.21,0.28,0.56c0,0.56,0.56,5.461,0.56,5.811c0,0.14-0.07,0.21-0.21,0.245
			l-0.56,0.175c-0.14,0.035-0.28,0-0.35-0.21c-0.35-0.98-0.91-2.38-2.17-3.71c-0.91-0.98-2.03-1.47-3.641-1.47
			c-2.8,0-3.92,2.24-3.92,3.535c0,1.19,0.14,2.24,0.98,3.15c0.91,0.91,2.87,1.75,4.27,2.17c2.03,0.63,3.71,1.33,5.041,2.73
			c1.12,1.19,1.75,2.661,1.75,5.006c0,4.271-2.8,7.771-7.421,7.771c-2.87,0-4.55-0.63-5.951-1.68c-0.42-0.28-0.63-0.42-0.84-0.42
			s-0.35,0.28-0.56,0.63s-0.35,0.42-0.63,0.42c-0.28,0-0.42-0.21-0.42-0.56c0.07-0.42,0.56-6.091,0.63-6.511
			c0.035-0.21,0.07-0.28,0.21-0.28L54.101,113.999z"/>
		<path d="M76.991,127.965c0.035,2.03,0.28,2.17,0.98,2.17h1.26c0.21,0,0.28,0.105,0.28,0.28v0.735c0,0.211-0.07,0.279-0.35,0.279
			c-0.28,0-1.33-0.104-4.061-0.104c-2.31,0-3.57,0.104-3.85,0.104c-0.21,0-0.28-0.068-0.28-0.279v-0.771
			c0-0.14,0.07-0.245,0.21-0.245h1.26c0.49,0,0.7-0.35,0.77-0.91c0.07-0.77,0.07-2.17,0.07-4.831v-12.076
			c0-1.05-0.14-1.541-1.19-2.101l-0.77-0.42c-0.21-0.14-0.28-0.21-0.28-0.35v-0.35c0-0.14,0.07-0.21,0.28-0.28l3.991-1.75
			c0.42-0.175,0.7-0.28,0.98-0.28c0.175,0,0.28,0.21,0.315,0.455l0.245,1.715h0.07c0.91-1.12,2.73-2.17,4.761-2.17
			c1.68,0,2.94,0.63,4.06,1.75c1.4,1.47,1.891,2.8,1.891,5.006c0,5.041-3.36,8.681-7.631,8.681c-0.77,0-2.03-0.14-3.081-0.63
			L76.991,127.965z M76.92,118.094c0,0.771,0.21,1.54,0.91,1.96c0.7,0.56,1.61,0.805,2.73,0.805c1.68,0,3.395-1.4,3.465-5.075
			c0-3.255-1.12-6.966-4.096-6.966c-1.12,0-2.31,0.56-3.01,1.54L76.92,118.094L76.92,118.094z"/>
		<path d="M97.99,120.089c-0.77,0.84-1.68,1.435-3.045,1.89c-0.807,0.245-1.541,0.245-2.24,0.245c-1.295,0-2.416-1.05-2.416-3.01
			c0-1.61,0.701-3.185,3.22-4.305c2.171-1.05,3.501-1.61,4.271-2.17v-1.82c-0.068-0.7-0.139-1.54-0.559-1.96
			c-0.352-0.385-0.98-0.525-1.75-0.525c-0.632,0-1.472,0.21-2.031,0.63c-0.489,0.35-0.141,0.875-0.141,1.715
			c0,1.26-0.63,2.03-2.101,2.03c-0.63,0-1.189-0.42-1.189-1.19c0-0.98,0.562-2.1,1.609-2.87c1.471-1.12,3.36-1.96,5.671-1.96
			c1.961,0,2.591,0.42,3.221,0.98c0.771,0.7,0.84,1.68,0.84,2.625l0.07,5.53v1.681c0,1.89,0.28,2.45,0.91,2.45
			c0.49,0,0.979-0.28,1.12-0.56c0.14-0.21,0.21-0.21,0.35-0.14l0.421,0.28c0.141,0.07,0.211,0.21,0.069,0.56
			c-0.351,0.63-1.19,2.03-3.222,2.03c-1.329,0-2.449-0.63-2.938-2.135L97.99,120.089L97.99,120.089z M97.779,114.034
			c-1.539,0.98-3.85,1.575-3.85,4.13c0,1.436,0.771,2.135,1.609,2.135c0.98-0.07,2.24-1.05,2.24-1.68V114.034L97.779,114.034z"/>
		<path d="M118.396,119.109c0.104,0.105,0.14,0.245,0,0.42c-0.875,1.085-3.326,2.695-5.916,2.695c-2.381,0-4.271-0.63-5.601-2.31
			c-1.331-1.68-1.681-3.081-1.681-4.831c0-2.205,0.84-4.655,2.59-6.266c1.471-1.33,3.15-2.03,5.111-2.03c4.06,0,4.97,2.1,4.97,3.15
			c0,0.84-0.56,1.54-1.54,1.54c-1.189,0-1.75-0.84-2.1-1.75c-0.49-1.19-1.262-1.435-2.172-1.435c-1.398,0-3.149,1.575-3.149,4.06
			c0,2.101,0.069,3.536,1.364,5.671c0.945,1.54,2.485,1.89,3.605,1.89c1.75,0,2.836-0.595,3.78-1.33
			c0.069-0.07,0.21-0.07,0.315,0.035L118.396,119.109z"/>
		<path d="M123.471,114.034c0,3.571,2.555,5.671,4.551,5.671c2.17,0,3.5-0.91,4.235-2.03c0.14-0.245,0.279-0.245,0.42-0.175
			l0.524,0.315c0.176,0.105,0.244,0.245,0,0.7c-0.734,1.331-2.52,3.71-6.37,3.71c-2.24,0-3.815-0.49-5.041-1.89
			c-1.61-1.855-1.96-3.605-1.96-5.775c0-1.925,0.21-3.221,1.715-5.181c1.471-1.89,3.046-2.59,6.091-2.59
			c3.99,0,5.286,4.166,5.286,5.601c0,0.525-0.352,0.56-0.98,0.56h-8.471V114.034L123.471,114.034z M127.811,111.688
			c0.735,0,1.155-0.21,1.155-0.49c0-1.05-0.35-3.116-2.17-3.116c-1.715,0-2.767,1.26-3.221,3.605L127.811,111.688L127.811,111.688z"
			/>
	</g>
	<circle clip-path="url(#SVGID_2_)" fill="none" stroke="#231F20" stroke-miterlimit="10" cx="92.25" cy="44.333" r="9.416"/>
	<g clip-path="url(#SVGID_2_)">
		<path d="M94.341,49.354c-0.17-0.493-0.289-1.02-0.34-1.53c-0.629,0.901-1.292,1.53-2.465,1.53c-1.649,0-2.499-1.343-2.499-2.856
			c0-1.717,0.969-3.195,2.703-3.195c0.73,0,1.562,0.289,2.191,0.595c0.051-2.278-0.355-3.229-1.836-3.229
			c-0.781,0-1.443,0.272-2.158,0.595l-0.188-0.731c0.782-0.306,1.547-0.544,2.396-0.544c1.648,0,2.635,1.156,2.584,3.162
			l-0.103,3.672c-0.019,0.867,0.204,1.683,0.44,2.431L94.341,49.354z M93.882,44.526c-0.562-0.289-1.241-0.544-1.955-0.544
			c-1.496,0-2.091,1.258-2.091,2.584c0,1.003,0.562,2.107,1.7,2.107c1.122,0,1.802-0.901,2.346-1.818V44.526L93.882,44.526z"/>
	</g>
	<g clip-path="url(#SVGID_2_)">
		<path d="M14.327,251.177c-0.07-0.202-0.119-0.42-0.141-0.631c-0.259,0.372-0.532,0.631-1.016,0.631
			c-0.679,0-1.029-0.554-1.029-1.177c0-0.707,0.399-1.316,1.113-1.316c0.302,0,0.645,0.119,0.904,0.246
			c0.021-0.938-0.147-1.332-0.757-1.332c-0.322,0-0.596,0.112-0.89,0.245l-0.077-0.301c0.322-0.126,0.638-0.226,0.988-0.226
			c0.679,0,1.085,0.478,1.064,1.304l-0.042,1.513c-0.008,0.357,0.084,0.693,0.182,1.002L14.327,251.177z M14.138,249.188
			c-0.231-0.119-0.511-0.224-0.806-0.224c-0.616,0-0.861,0.519-0.861,1.063c0,0.414,0.231,0.869,0.7,0.869
			c0.463,0,0.743-0.371,0.967-0.75V249.188z"/>
		<path d="M17.539,246.184h-1.092v-0.281h1.422v5.197h-0.33V246.184z"/>
		<path d="M20.646,248.689c0-0.447-0.035-0.896-0.168-1.33l0.308-0.043l0.126,0.609h0.015c0.188-0.385,0.546-0.609,0.98-0.609
			c0.616,0,1.436,0.498,1.436,1.955c0,1.484-0.953,1.904-1.457,1.904c-0.329,0-0.658-0.111-0.91-0.314v1.723h-0.329L20.646,248.689
			L20.646,248.689z M20.976,250.532c0.23,0.202,0.511,0.364,0.826,0.364c0.42,0,1.212-0.295,1.212-1.646
			c0-1.289-0.693-1.652-1.114-1.652c-0.49,0-0.742,0.342-0.924,0.741V250.532z"/>
		<path d="M24.874,245.902h0.329v2.298h0.015c0.224-0.462,0.672-0.884,1.232-0.884c0.343,0,0.883,0.273,0.883,1.086v2.697h-0.329
			v-2.326c0-0.469-0.063-1.176-0.609-1.176c-0.624,0-1.191,0.776-1.191,1.639v1.863h-0.329L24.874,245.902L24.874,245.902z"/>
		<path d="M31.127,251.177c-0.07-0.202-0.119-0.42-0.141-0.631c-0.259,0.372-0.532,0.631-1.016,0.631
			c-0.679,0-1.029-0.554-1.029-1.177c0-0.707,0.399-1.316,1.113-1.316c0.302,0,0.645,0.119,0.904,0.246
			c0.021-0.938-0.147-1.332-0.757-1.332c-0.322,0-0.596,0.112-0.89,0.245l-0.077-0.301c0.322-0.126,0.638-0.226,0.988-0.226
			c0.679,0,1.085,0.478,1.064,1.304l-0.042,1.513c-0.008,0.357,0.084,0.693,0.182,1.002L31.127,251.177z M30.938,249.188
			c-0.231-0.119-0.511-0.224-0.806-0.224c-0.616,0-0.861,0.519-0.861,1.063c0,0.414,0.231,0.869,0.7,0.869
			c0.463,0,0.743-0.371,0.967-0.75V249.188z"/>
		<path d="M37.775,245.902v1.729c0.252-0.202,0.581-0.315,0.91-0.315c0.512,0,1.457,0.422,1.457,1.906
			c0,1.441-0.819,1.953-1.436,1.953c-0.435,0-0.792-0.225-0.988-0.609l-0.133,0.609l-0.308-0.042
			c0.133-0.435,0.168-0.883,0.168-1.338V245.9h0.33V245.902z M37.775,250.154c0.182,0.398,0.434,0.742,0.924,0.742
			c0.421,0,1.114-0.364,1.114-1.653c0-1.358-0.792-1.646-1.212-1.646c-0.315,0-0.596,0.16-0.826,0.363V250.154z"/>
		<path d="M41.45,249.243c0-1.442,0.742-1.927,1.415-1.927c0.616,0,1.421,0.414,1.421,1.927c0,1.506-0.798,1.934-1.421,1.934
			C42.241,251.177,41.45,250.757,41.45,249.243z M43.957,249.243c0-0.722-0.182-1.646-1.092-1.646c-0.904,0-1.086,0.924-1.086,1.646
			c0,0.729,0.182,1.653,1.086,1.653C43.775,250.896,43.957,249.965,43.957,249.243z"/>
		<path d="M45.65,249.243c0-1.442,0.742-1.927,1.415-1.927c0.616,0,1.421,0.414,1.421,1.927c0,1.506-0.798,1.934-1.421,1.934
			C46.441,251.177,45.65,250.757,45.65,249.243z M48.157,249.243c0-0.722-0.182-1.646-1.092-1.646c-0.904,0-1.086,0.924-1.086,1.646
			c0,0.729,0.182,1.653,1.086,1.653C47.976,250.896,48.157,249.965,48.157,249.243z"/>
		<path d="M52.582,247.395c-0.735,0.883-0.945,1.178-1.478,1.688l1.793,2.019h-0.441l-1.548-1.828l-0.351,0.344v1.484h-0.329v-5.197
			h0.329v3.32c0.574-0.547,1.142-1.156,1.597-1.828h0.428V247.395z"/>
		<path d="M56.368,247.982c-0.294-0.211-0.624-0.385-0.995-0.385s-0.735,0.279-0.735,0.672c0,0.435,0.483,0.638,0.819,0.764
			c0.567,0.218,1.163,0.441,1.163,1.162c0,0.617-0.546,0.98-1.113,0.98c-0.463,0-1.058-0.287-1.395-0.596l0.183-0.266
			c0.301,0.301,0.791,0.58,1.226,0.58c0.413,0,0.771-0.23,0.771-0.68c0-0.553-0.428-0.714-0.868-0.882
			c-0.512-0.196-1.114-0.435-1.114-1.093c0-0.525,0.532-0.926,1.086-0.926c0.427,0,0.777,0.147,1.113,0.394L56.368,247.982z"/>
	</g>
	<g clip-path="url(#SVGID_2_)">
		<path d="M67.293,160.121c0.036,0.036,0.048,0.072,0.024,0.12c-0.72,1.03-1.871,2.015-3.574,2.015
			c-1.535,0-2.398-0.455-3.142-1.127c-0.888-0.792-1.295-2.184-1.295-3.238c0-1.176,0.384-2.303,1.224-3.215
			c0.647-0.695,1.679-1.271,3.118-1.271c1.104,0,1.991,0.336,2.423,0.575c0.167,0.096,0.216,0.096,0.24,0l0.096-0.312
			c0.024-0.072,0.048-0.072,0.192-0.072s0.168,0.024,0.168,0.192c0,0.216,0.24,2.135,0.288,2.494c0.012,0.071,0,0.108-0.048,0.12
			l-0.228,0.072c-0.06,0.022-0.096-0.024-0.132-0.121c-0.144-0.432-0.432-1.03-0.935-1.56c-0.528-0.504-1.151-0.888-2.087-0.888
			c-1.919,0-2.71,1.728-2.71,3.453c0,0.744,0.216,2.16,1.103,3.119c0.792,0.84,1.487,0.937,2.063,0.937
			c1.319,0,2.363-0.66,2.867-1.392c0.06-0.084,0.108-0.121,0.144-0.084L67.293,160.121z"/>
		<path d="M70.848,161.488c-0.264,0.287-0.576,0.492-1.043,0.646c-0.276,0.084-0.528,0.084-0.768,0.084
			c-0.444,0-0.828-0.359-0.828-1.031c0-0.552,0.24-1.09,1.104-1.475c0.743-0.359,1.199-0.552,1.463-0.744v-0.623
			c-0.024-0.24-0.048-0.527-0.192-0.672c-0.12-0.132-0.336-0.18-0.6-0.18c-0.216,0-0.504,0.07-0.696,0.216
			c-0.168,0.119-0.048,0.3-0.048,0.587c0,0.434-0.216,0.696-0.72,0.696c-0.216,0-0.408-0.146-0.408-0.408
			c0-0.336,0.192-0.72,0.552-0.983c0.504-0.384,1.151-0.672,1.943-0.672c0.672,0,0.888,0.146,1.104,0.336
			c0.264,0.24,0.288,0.576,0.288,0.899l0.024,1.896v0.575c0,0.647,0.096,0.841,0.312,0.841c0.168,0,0.336-0.097,0.384-0.192
			c0.048-0.071,0.072-0.071,0.12-0.048l0.144,0.097c0.048,0.022,0.072,0.071,0.024,0.19c-0.12,0.217-0.408,0.695-1.104,0.695
			c-0.456,0-0.839-0.216-1.007-0.73H70.848L70.848,161.488z M70.776,159.414c-0.528,0.335-1.319,0.539-1.319,1.415
			c0,0.491,0.264,0.731,0.552,0.731c0.336-0.024,0.768-0.36,0.768-0.576L70.776,159.414L70.776,159.414z"/>
		<path d="M74.089,158.994c0-0.553-0.096-0.744-0.456-0.936l-0.216-0.121c-0.072-0.023-0.096-0.047-0.096-0.096v-0.072
			c0-0.047,0.024-0.071,0.096-0.106l1.451-0.685c0.072-0.023,0.12-0.049,0.192-0.049c0.072,0,0.096,0.072,0.108,0.146l0.108,0.888
			h0.048c0.408-0.672,0.912-1.08,1.439-1.08c0.384,0,0.624,0.264,0.624,0.6s-0.336,0.647-0.647,0.647
			c-0.168,0-0.312-0.048-0.408-0.096c-0.096-0.071-0.216-0.097-0.335-0.097c-0.144,0-0.36,0.097-0.504,0.349
			c-0.096,0.168-0.144,0.432-0.144,0.588v2.291c0,0.384,0.096,0.503,0.336,0.503h0.528c0.072,0,0.096,0.023,0.096,0.084v0.276
			c0,0.06-0.024,0.084-0.084,0.084c-0.084,0-0.611-0.036-1.487-0.036c-0.84,0-1.308,0.036-1.403,0.036
			c-0.06,0-0.084-0.024-0.084-0.084v-0.265c0-0.072,0.024-0.097,0.108-0.097h0.42c0.192,0,0.312-0.096,0.312-0.323v-2.35H74.089z"/>
		<path d="M82.079,157.639c0.563,0.563,0.828,1.188,0.828,1.896c0,0.672-0.288,1.319-0.744,1.823
			c-0.492,0.552-1.211,0.863-2.015,0.863c-0.756,0-1.403-0.217-1.943-0.863c-0.527-0.623-0.647-1.127-0.647-1.858
			c0-0.576,0.288-1.416,1.007-1.991c0.588-0.479,1.211-0.576,1.703-0.576C81.071,156.932,81.671,157.243,82.079,157.639z
			 M81.443,159.498c0-1.318-0.695-2.087-1.247-2.087c-0.312,0-0.552,0.096-0.756,0.323c-0.372,0.42-0.516,0.924-0.516,1.799
			c0,0.695,0.048,1.15,0.372,1.667c0.204,0.323,0.468,0.517,0.947,0.517C81.035,161.717,81.443,160.721,81.443,159.498z"/>
		<path d="M84.289,157.482c0-0.84-0.024-1.871-0.048-2.184c-0.024-0.406-0.228-0.6-0.611-0.72l-0.24-0.071
			c-0.072-0.023-0.072-0.049-0.072-0.097v-0.144c0-0.024,0.024-0.072,0.096-0.097c0.479-0.146,1.415-0.456,1.799-0.696
			c0.144-0.048,0.216-0.07,0.264-0.07c0.072,0,0.12,0.048,0.12,0.216c-0.024,0.647-0.048,3.142-0.048,3.802v1.727
			c0,0.553,0,1.775,0.024,2.136c0.024,0.217,0.048,0.384,0.312,0.384h0.456c0.12,0,0.144,0.023,0.144,0.107v0.217
			c0,0.072-0.024,0.119-0.072,0.119c-0.096,0-0.624-0.035-1.463-0.035c-0.912,0-1.392,0.035-1.487,0.035
			c-0.072,0-0.096-0.047-0.096-0.119v-0.229c0-0.072,0.024-0.097,0.168-0.097h0.456c0.12,0,0.3-0.096,0.3-0.433v-3.285v-0.467
			H84.289z"/>
		<path d="M89.581,154.46c-0.12-0.335-0.312-0.433-0.504-0.433h-0.336c-0.048,0-0.072-0.035-0.072-0.084v-0.312
			c0-0.06,0.037-0.084,0.097-0.084c0.096,0,0.456,0.036,1.535,0.036c0.863,0,1.367-0.036,1.487-0.036
			c0.071,0,0.096,0.024,0.096,0.084v0.3c0,0.061-0.022,0.096-0.106,0.096h-0.229c-0.239,0-0.371,0.168-0.286,0.421l1.762,5.541
			l0.023,0.012c0.098-0.252,1.691-4.665,1.717-5.121c0-0.216-0.098-0.479-0.218-0.636c-0.096-0.145-0.264-0.217-0.407-0.217h-0.252
			c-0.048,0-0.084-0.022-0.084-0.084v-0.299c0-0.061,0.024-0.097,0.096-0.097c0.098,0,0.528,0.036,1.561,0.036
			c1.008,0,1.463-0.036,1.57-0.036c0.072,0,0.084,0.036,0.084,0.108v0.275c0,0.06-0.023,0.096-0.084,0.096h-0.42
			c-0.239,0-0.323,0.264-0.264,0.468l1.728,5.541h0.048c0.359-1.056,1.727-5.013,1.727-5.673c0-0.168-0.119-0.336-0.406-0.336
			h-0.323c-0.072,0-0.084-0.036-0.084-0.096v-0.289c0-0.06,0.022-0.096,0.096-0.096c0.119,0,0.527,0.036,1.271,0.036
			c0.673,0,1.031-0.036,1.127-0.036c0.049,0,0.072,0.023,0.072,0.061v0.324c0,0.06-0.012,0.096-0.084,0.096h-0.252
			c-0.19,0-0.408,0.119-0.527,0.396c-0.12,0.265-2.565,6.979-2.807,7.579c-0.049,0.12-0.145,0.312-0.312,0.312
			s-0.252-0.121-0.3-0.266l-2.172-6.309H95.1c-0.108,0.336-2.23,6.213-2.279,6.345c-0.049,0.12-0.168,0.229-0.312,0.229
			c-0.118,0-0.202-0.072-0.239-0.192L89.581,154.46z"/>
		<path d="M102.854,158.658c0-0.36-0.072-0.6-0.623-0.744c-0.108-0.023-0.121-0.061-0.121-0.107v-0.132
			c0-0.048,0.023-0.071,0.084-0.096c0.168-0.072,1.354-0.492,1.56-0.576c0.12-0.048,0.216-0.071,0.288-0.071
			s0.107,0.047,0.096,0.145c-0.023,0.191-0.023,0.959-0.023,1.955v1.295c0,0.456,0,0.888,0.023,1.031
			c0.023,0.216,0.072,0.312,0.191,0.312h0.48c0.096,0,0.118,0.024,0.118,0.084v0.24c0,0.071-0.022,0.12-0.096,0.12
			c-0.097,0-0.646-0.036-1.451-0.036c-0.694,0-1.149,0.036-1.295,0.036c-0.062,0-0.096-0.024-0.096-0.12v-0.228
			c0-0.072,0.048-0.098,0.118-0.098h0.529c0.119,0,0.18-0.048,0.191-0.238c0.012-0.361,0.023-0.744,0.023-1.08v-1.691H102.854z
			 M103.261,155.72c-0.385,0-0.768-0.3-0.768-0.72c0-0.359,0.348-0.743,0.84-0.743c0.503,0,0.742,0.407,0.742,0.695
			C104.075,155.312,103.824,155.72,103.261,155.72z"/>
		<path d="M106.872,157.027c0.096-0.049,0.168-0.098,0.239-0.098c0.072,0,0.119,0.049,0.145,0.146l0.098,0.623h0.07
			c0.145-0.168,0.36-0.359,0.6-0.479c0.289-0.168,0.601-0.287,0.961-0.287c0.406,0,0.791,0.071,1.055,0.287
			c0.527,0.385,0.66,0.744,0.66,1.235v1.728c0,0.385-0.012,0.911-0.012,1.151c0,0.265,0.144,0.335,0.287,0.335h0.336
			c0.106,0,0.145,0.023,0.145,0.084v0.275c0,0.061-0.023,0.084-0.098,0.084c-0.096,0-0.455-0.035-1.295-0.035
			c-0.72,0-1.104,0.035-1.174,0.035c-0.072,0-0.098-0.047-0.098-0.145v-0.203c0-0.072,0.023-0.097,0.145-0.097h0.239
			c0.097,0,0.191-0.071,0.216-0.287c0.036-0.312,0.049-0.647,0.049-1.128v-1.379c0-0.479-0.023-0.792-0.312-1.031
			c-0.238-0.216-0.456-0.216-0.72-0.216c-0.191,0-0.479,0.048-0.769,0.312c-0.19,0.191-0.252,0.527-0.252,0.853v2.471
			c0,0.265,0.062,0.407,0.229,0.407h0.215c0.097,0,0.121,0.023,0.121,0.107v0.217c0,0.072-0.024,0.119-0.097,0.119
			c-0.071,0-0.407-0.035-1.129-0.035c-0.742,0-1.127,0.035-1.199,0.035c-0.047,0-0.07-0.047-0.07-0.119v-0.229
			c0-0.072,0.023-0.097,0.12-0.097h0.239c0.144,0,0.312-0.048,0.312-0.239v-2.697c0-0.36-0.215-0.553-0.503-0.696l-0.098-0.048
			c-0.07-0.023-0.096-0.072-0.096-0.12v-0.097c0-0.047,0.049-0.096,0.12-0.119L106.872,157.027z"/>
		<path d="M111.984,157.734c-0.096,0-0.168-0.049-0.168-0.168c0-0.097,0.072-0.168,0.229-0.229c0.335-0.12,1.379-1.008,1.645-1.512
			c0.047-0.096,0.119-0.119,0.19-0.119c0.097,0,0.146,0.07,0.146,0.168l-0.049,1.188h1.584c0.07,0,0.096,0.049,0.082,0.097
			l-0.119,0.504c-0.013,0.048-0.047,0.071-0.119,0.071h-1.451c-0.023,0.504-0.037,1.078-0.037,1.606v1.079
			c0,0.936,0.396,1.128,0.637,1.128c0.264,0,0.527-0.062,0.695-0.146c0.084-0.035,0.119-0.035,0.145,0.024l0.071,0.144
			c0.024,0.072,0,0.121-0.048,0.169c-0.168,0.12-0.672,0.479-1.512,0.479c-0.719,0-1.26-0.575-1.26-1.079
			c0-0.432,0.037-1.392,0.037-1.847v-1.56h-0.697V157.734z"/>
		<path d="M117.229,159.414c0,1.223,0.877,1.941,1.561,1.941c0.742,0,1.199-0.312,1.451-0.694c0.047-0.084,0.096-0.084,0.143-0.062
			l0.182,0.108c0.06,0.036,0.084,0.084,0,0.24c-0.252,0.454-0.864,1.271-2.184,1.271c-0.768,0-1.308-0.168-1.727-0.646
			c-0.553-0.637-0.672-1.235-0.672-1.979c0-0.659,0.07-1.104,0.588-1.774c0.503-0.647,1.043-0.889,2.086-0.889
			c1.367,0,1.811,1.428,1.811,1.92c0,0.181-0.119,0.191-0.335,0.191h-2.903V159.414L117.229,159.414z M118.716,158.609
			c0.252,0,0.396-0.071,0.396-0.168c0-0.359-0.119-1.066-0.742-1.066c-0.588,0-0.947,0.432-1.104,1.234H118.716z"/>
		<path d="M121.896,158.994c0-0.553-0.097-0.744-0.457-0.936l-0.215-0.121c-0.072-0.023-0.097-0.047-0.097-0.096v-0.072
			c0-0.047,0.024-0.071,0.097-0.106l1.451-0.685c0.071-0.023,0.119-0.049,0.191-0.049s0.096,0.072,0.107,0.146l0.107,0.888h0.048
			c0.408-0.672,0.912-1.08,1.438-1.08c0.385,0,0.623,0.264,0.623,0.6s-0.336,0.647-0.646,0.647c-0.168,0-0.312-0.048-0.407-0.096
			c-0.097-0.071-0.218-0.097-0.337-0.097c-0.145,0-0.358,0.097-0.504,0.349c-0.096,0.168-0.146,0.432-0.146,0.588v2.291
			c0,0.384,0.098,0.503,0.337,0.503h0.528c0.07,0,0.096,0.023,0.096,0.084v0.276c0,0.06-0.024,0.084-0.084,0.084
			c-0.084,0-0.611-0.036-1.487-0.036c-0.84,0-1.308,0.036-1.401,0.036c-0.062,0-0.084-0.024-0.084-0.084v-0.265
			c0-0.072,0.022-0.097,0.106-0.097h0.42c0.19,0,0.312-0.096,0.312-0.323v-2.35H121.896z"/>
	</g>
</g>
</svg>
