<?xml version="1.0" encoding="utf-8"?>
<!-- Generator: Adobe Illustrator 17.0.2, SVG Export Plug-In . SVG Version: 6.00 Build 0)  -->
<!DOCTYPE svg PUBLIC "-//W3C//DTD SVG 1.1//EN" "http://www.w3.org/Graphics/SVG/1.1/DTD/svg11.dtd">
<svg version="1.1" id="Layer_1" xmlns="http://www.w3.org/2000/svg" xmlns:xlink="http://www.w3.org/1999/xlink" x="0px" y="0px"
	 width="30.769px" height="400px" viewBox="0 0 30.769 400" enable-background="new 0 0 30.769 400" xml:space="preserve">
<rect x="0" fill="#189AD4" width="30.769" height="400"/>
<g enable-background="new    ">
	<path fill="#010101" d="M5.452,20.685l7.378,5.105l0.031-0.028c-0.132-0.282-0.225-0.623-0.283-1.025
		c-0.054-0.402-0.085-0.771-0.085-1.108c0-0.878,0.162-1.702,0.489-2.468c0.328-0.768,0.778-1.442,1.346-2.02
		c0.572-0.58,1.245-1.034,2.02-1.36c0.775-0.328,1.612-0.492,2.511-0.492c1.049,0,2.002,0.188,2.862,0.562
		c0.86,0.374,1.595,0.885,2.203,1.529c0.609,0.645,1.075,1.412,1.402,2.302c0.328,0.888,0.492,1.835,0.492,2.846
		c0,1.028-0.172,1.988-0.52,2.875c-0.346,0.888-0.828,1.66-1.443,2.314c-0.617,0.654-1.343,1.165-2.175,1.529
		s-1.726,0.548-2.678,0.548c-0.562,0-1.091-0.048-1.586-0.142c-0.495-0.094-0.974-0.228-1.429-0.406
		c-0.458-0.178-0.922-0.392-1.389-0.645c-0.469-0.254-0.954-0.538-1.458-0.855L5.451,24.78L5.452,20.685L5.452,20.685z
		 M19.088,28.371c0.523,0,1.02-0.089,1.486-0.266c0.468-0.178,0.883-0.434,1.249-0.772c0.363-0.335,0.652-0.738,0.868-1.206
		c0.217-0.468,0.323-0.991,0.323-1.571c0-1.142-0.368-2.062-1.108-2.763c-0.74-0.702-1.698-1.052-2.875-1.052
		c-0.562,0-1.08,0.089-1.557,0.266c-0.478,0.177-0.883,0.435-1.22,0.771c-0.337,0.337-0.605,0.734-0.802,1.192
		c-0.195,0.458-0.294,0.969-0.294,1.529c0,0.562,0.092,1.082,0.28,1.557c0.188,0.477,0.452,0.889,0.8,1.235
		c0.346,0.346,0.762,0.612,1.249,0.8C17.975,28.277,18.506,28.371,19.088,28.371z"/>
</g>
<g enable-background="new    ">
	<path fill="#FFFFFF" d="M25.315,35.972v3.534H8.595v8.445H5.452v-11.98L25.315,35.972L25.315,35.972z"/>
	<path fill="#FFFFFF" d="M25.315,50.309v3.534H5.452v-3.534H25.315z"/>
	<path fill="#FFFFFF" d="M25.315,55.751v3.955l-15.289,5.471v0.112l15.289,5.526v3.815L5.452,66.665v-3.058L25.315,55.751z"/>
	<path fill="#FFFFFF" d="M25.315,76.538v13.157h-3.085v-9.622H17.18v9.117h-2.974v-9.117H8.595v10.128H5.452V76.54L25.315,76.538
		L25.315,76.538z"/>
	<path fill="#FFFFFF" d="M21.163,103.778c0.486-0.375,0.892-0.902,1.22-1.586c0.326-0.682,0.491-1.371,0.491-2.062
		c0-0.412-0.052-0.823-0.155-1.234c-0.102-0.412-0.262-0.786-0.477-1.122c-0.215-0.338-0.495-0.614-0.842-0.829
		c-0.348-0.215-0.762-0.322-1.249-0.322c-0.451,0-0.832,0.092-1.151,0.28c-0.318,0.188-0.589,0.445-0.814,0.771
		c-0.225,0.326-0.42,0.725-0.589,1.192c-0.168,0.468-0.337,0.983-0.505,1.543c-0.208,0.637-0.44,1.295-0.703,1.978
		c-0.262,0.683-0.609,1.309-1.037,1.88c-0.431,0.571-0.972,1.038-1.628,1.403c-0.655,0.365-1.469,0.546-2.44,0.546
		c-1.066,0-1.998-0.195-2.791-0.589c-0.797-0.392-1.454-0.917-1.977-1.572c-0.526-0.654-0.917-1.42-1.178-2.3
		c-0.263-0.878-0.395-1.805-0.395-2.777c0-1.289,0.238-2.552,0.717-3.786c0.478-1.235,1.185-2.245,2.118-3.031l2.355,2.525
		c-0.674,0.486-1.205,1.137-1.6,1.949c-0.392,0.814-0.589,1.614-0.589,2.4c0,0.412,0.052,0.832,0.155,1.262
		c0.103,0.431,0.277,0.818,0.52,1.165c0.242,0.345,0.546,0.626,0.911,0.84c0.366,0.214,0.817,0.323,1.363,0.323
		c0.523,0,0.958-0.122,1.306-0.365c0.346-0.245,0.646-0.571,0.898-0.983c0.251-0.412,0.472-0.897,0.658-1.458
		c0.186-0.562,0.385-1.151,0.589-1.766c0.186-0.598,0.411-1.197,0.674-1.795c0.262-0.6,0.608-1.137,1.038-1.614
		c0.429-0.477,0.96-0.865,1.585-1.163c0.626-0.3,1.406-0.449,2.34-0.449c1.009,0,1.882,0.211,2.608,0.631
		c0.731,0.422,1.334,0.972,1.812,1.655c0.477,0.683,0.829,1.46,1.063,2.329c0.234,0.869,0.352,1.754,0.352,2.651
		c0,1.011-0.178,2.034-0.534,3.072c-0.354,1.037-0.889,1.94-1.598,2.706L21.163,103.778z"/>
</g>
<g enable-background="new    ">
	<path fill="#010101" d="M11.126,305.808v-1.214l7.825,3.392v0.994l-7.825,3.363v-1.24l1.923-0.797v-3.714L11.126,305.808z
		 M14.011,306.982v2.928l3.671-1.457L14.011,306.982z"/>
	<path fill="#010101" d="M16.368,314.234c-0.134,0.015-0.283,0.028-0.448,0.032c-0.166,0.006-0.305,0.012-0.415,0.012v0.032
		c0.14,0.068,0.271,0.158,0.392,0.272c0.122,0.112,0.228,0.242,0.32,0.391c0.094,0.149,0.162,0.309,0.217,0.485
		c0.051,0.177,0.078,0.362,0.078,0.552c0,0.34-0.057,0.629-0.171,0.872c-0.114,0.243-0.268,0.445-0.458,0.609
		c-0.192,0.16-0.417,0.285-0.674,0.358c-0.258,0.078-0.535,0.117-0.829,0.117h-3.248v-1.042h2.908c0.215,0,0.417-0.017,0.609-0.049
		c0.191-0.032,0.36-0.094,0.508-0.183c0.148-0.088,0.266-0.209,0.354-0.362c0.088-0.155,0.132-0.354,0.132-0.6
		c0-0.412-0.157-0.746-0.471-1.009c-0.312-0.262-0.732-0.394-1.254-0.394h-2.786v-1.04h4.112c0.14,0,0.32-0.003,0.543-0.011
		c0.222-0.008,0.417-0.018,0.586-0.032v0.986h-0.006V314.234z"/>
	<path fill="#010101" d="M11.955,323.906c-0.315-0.198-0.558-0.472-0.726-0.811c-0.166-0.343-0.248-0.703-0.248-1.078
		c0-0.406,0.072-0.769,0.217-1.094c0.145-0.325,0.343-0.602,0.592-0.829c0.249-0.228,0.545-0.406,0.883-0.532s0.7-0.188,1.082-0.188
		c0.385,0,0.742,0.062,1.08,0.188c0.335,0.126,0.628,0.303,0.877,0.538c0.251,0.231,0.446,0.508,0.586,0.832
		c0.142,0.325,0.211,0.682,0.211,1.072c0,0.426-0.091,0.802-0.271,1.12c-0.18,0.314-0.4,0.566-0.658,0.749v0.023h3.903v1.04h-8.357
		v-1.005h0.829L11.955,323.906L11.955,323.906z M13.751,320.457c-0.24,0-0.477,0.035-0.703,0.111
		c-0.228,0.072-0.429,0.183-0.609,0.331c-0.172,0.148-0.315,0.328-0.422,0.545c-0.105,0.214-0.16,0.463-0.16,0.751
		c0,0.265,0.051,0.505,0.155,0.725c0.103,0.218,0.238,0.405,0.415,0.557c0.171,0.155,0.372,0.275,0.602,0.358
		c0.229,0.083,0.466,0.126,0.715,0.126c0.249,0,0.488-0.042,0.718-0.126c0.228-0.085,0.428-0.205,0.606-0.358
		s0.317-0.342,0.418-0.557c0.103-0.22,0.155-0.46,0.155-0.725c0-0.289-0.051-0.54-0.155-0.751c-0.102-0.217-0.242-0.397-0.418-0.545
		c-0.175-0.148-0.377-0.258-0.606-0.331C14.229,320.492,13.997,320.457,13.751,320.457z"/>
	<path fill="#010101" d="M15.782,326.735c0.222-0.008,0.417-0.018,0.586-0.032v0.985c-0.134,0.015-0.288,0.026-0.46,0.032
		c-0.172,0.006-0.314,0.012-0.425,0.012v0.032c0.309,0.148,0.558,0.362,0.746,0.646c0.188,0.283,0.283,0.605,0.283,0.955
		c0,0.162-0.015,0.298-0.043,0.409l-0.962-0.042c0.035-0.148,0.054-0.305,0.054-0.478c0-0.249-0.045-0.468-0.138-0.652
		c-0.092-0.183-0.215-0.337-0.369-0.458c-0.154-0.122-0.334-0.212-0.537-0.271c-0.205-0.058-0.417-0.089-0.637-0.089h-2.752v-1.042
		h4.114C15.378,326.746,15.558,326.743,15.782,326.735z"/>
	<path fill="#010101" d="M13.791,335.446c-0.058,0-0.115,0-0.175,0s-0.117-0.005-0.177-0.011v-4.168
		c-0.22,0.006-0.425,0.057-0.617,0.149c-0.195,0.092-0.362,0.215-0.505,0.371c-0.145,0.154-0.255,0.334-0.337,0.535
		c-0.083,0.205-0.12,0.417-0.12,0.649c0,0.352,0.078,0.658,0.229,0.917c0.158,0.258,0.345,0.462,0.565,0.609l-0.586,0.732
		c-0.372-0.282-0.646-0.609-0.82-0.991c-0.172-0.382-0.265-0.802-0.265-1.266c0-0.398,0.066-0.766,0.202-1.106
		c0.132-0.338,0.318-0.628,0.555-0.871c0.24-0.243,0.529-0.435,0.868-0.577c0.338-0.138,0.715-0.208,1.125-0.208
		c0.408,0,0.78,0.066,1.122,0.205c0.343,0.135,0.635,0.325,0.878,0.571c0.243,0.242,0.432,0.532,0.571,0.863
		c0.135,0.334,0.205,0.691,0.205,1.075s-0.063,0.734-0.189,1.046c-0.123,0.315-0.303,0.58-0.542,0.8
		c-0.235,0.218-0.522,0.385-0.858,0.505C14.588,335.388,14.209,335.446,13.791,335.446z M14.209,334.385
		c0.208-0.006,0.402-0.04,0.582-0.103c0.18-0.062,0.338-0.155,0.471-0.275c0.132-0.123,0.237-0.275,0.314-0.454
		c0.078-0.18,0.117-0.394,0.117-0.637c0-0.222-0.038-0.428-0.117-0.623c-0.077-0.197-0.182-0.363-0.314-0.508
		c-0.132-0.146-0.289-0.262-0.471-0.352c-0.18-0.094-0.374-0.146-0.582-0.16V334.385z"/>
	<path fill="#010101" d="M16.368,337.272l-4.003,1.183v0.023l4.003,1.249v1.095l-4.003,1.269v0.025l4.003,1.185v1.094l-5.24-1.737
		v-1.082l3.937-1.295v-0.022l-3.937-1.283v-1.085l5.24-1.748V337.272z"/>
	<path fill="#010101" d="M18.951,348.248v1.094H15.68v3.957h3.271v1.106h-7.825v-1.106h3.582v-3.957h-3.582v-1.094H18.951z"/>
	<path fill="#010101" d="M11.126,359.943c0.132-0.015,0.283-0.028,0.448-0.032c0.163-0.006,0.303-0.012,0.415-0.012v-0.022
		c-0.28-0.132-0.517-0.354-0.712-0.671c-0.195-0.312-0.294-0.662-0.294-1.043c0-0.342,0.057-0.634,0.168-0.88
		c0.108-0.246,0.262-0.451,0.457-0.609c0.195-0.16,0.423-0.277,0.682-0.352c0.255-0.078,0.532-0.115,0.826-0.115h3.251v1.038h-2.897
		c-0.214,0-0.417,0.018-0.612,0.051c-0.195,0.032-0.365,0.094-0.514,0.18c-0.148,0.089-0.265,0.212-0.352,0.366
		s-0.132,0.352-0.132,0.598c0,0.417,0.158,0.757,0.471,1.015c0.314,0.258,0.734,0.388,1.252,0.388h2.786v1.04h-4.114
		c-0.138,0-0.318,0.003-0.542,0.009c-0.22,0.009-0.417,0.02-0.586,0.032L11.126,359.943L11.126,359.943z"/>
	<path fill="#010101" d="M11.955,366.863c-0.315-0.198-0.558-0.472-0.726-0.811c-0.166-0.343-0.248-0.703-0.248-1.078
		c0-0.406,0.072-0.769,0.217-1.094c0.145-0.325,0.343-0.602,0.592-0.829c0.249-0.228,0.545-0.406,0.883-0.532s0.7-0.186,1.082-0.186
		c0.385,0,0.742,0.06,1.08,0.186c0.335,0.126,0.628,0.303,0.877,0.538c0.251,0.231,0.446,0.508,0.586,0.832
		c0.142,0.326,0.211,0.682,0.211,1.072c0,0.426-0.091,0.802-0.271,1.12c-0.18,0.315-0.4,0.566-0.658,0.749v0.023h3.903v1.04h-8.357
		v-1.005h0.829L11.955,366.863L11.955,366.863z M13.751,363.414c-0.24,0-0.477,0.035-0.703,0.111
		c-0.228,0.072-0.429,0.183-0.609,0.331c-0.172,0.148-0.315,0.328-0.422,0.545c-0.105,0.214-0.16,0.465-0.16,0.751
		c0,0.265,0.051,0.505,0.155,0.725c0.103,0.218,0.238,0.405,0.415,0.558c0.171,0.155,0.372,0.274,0.602,0.357
		c0.229,0.083,0.466,0.126,0.715,0.126c0.249,0,0.488-0.042,0.718-0.126c0.228-0.085,0.428-0.205,0.606-0.357
		c0.177-0.157,0.317-0.343,0.418-0.558c0.103-0.22,0.155-0.46,0.155-0.725c0-0.289-0.051-0.54-0.155-0.751
		c-0.102-0.217-0.242-0.397-0.418-0.545c-0.175-0.148-0.377-0.258-0.606-0.331C14.229,363.449,13.997,363.414,13.751,363.414z"/>
	<path fill="#010101" d="M15.04,372.532c0.191-0.117,0.348-0.286,0.469-0.497c0.122-0.215,0.183-0.452,0.183-0.72
		c0-0.117-0.014-0.234-0.038-0.352c-0.026-0.12-0.066-0.225-0.122-0.315c-0.055-0.095-0.125-0.166-0.211-0.225
		c-0.085-0.052-0.189-0.082-0.314-0.082c-0.223,0-0.386,0.098-0.491,0.297c-0.106,0.198-0.206,0.495-0.292,0.895
		c-0.058,0.249-0.129,0.48-0.212,0.697c-0.082,0.214-0.18,0.4-0.302,0.555c-0.122,0.158-0.269,0.283-0.435,0.372
		c-0.166,0.088-0.368,0.132-0.598,0.132c-0.309,0-0.571-0.06-0.786-0.177c-0.214-0.117-0.388-0.277-0.526-0.469
		c-0.135-0.197-0.234-0.42-0.289-0.672c-0.06-0.249-0.092-0.508-0.092-0.774c0-0.4,0.078-0.788,0.234-1.166
		c0.154-0.382,0.391-0.697,0.706-0.945l0.631,0.74c-0.208,0.138-0.382,0.331-0.52,0.58c-0.142,0.246-0.211,0.517-0.211,0.811
		c0,0.132,0.012,0.26,0.037,0.382c0.026,0.12,0.069,0.231,0.126,0.331c0.06,0.098,0.138,0.18,0.229,0.237
		c0.095,0.06,0.222,0.091,0.366,0.091c0.243,0,0.423-0.117,0.543-0.349c0.115-0.232,0.226-0.574,0.331-1.023
		c0.043-0.175,0.097-0.355,0.16-0.537c0.063-0.183,0.151-0.346,0.258-0.491c0.111-0.149,0.249-0.269,0.417-0.358
		c0.163-0.094,0.369-0.138,0.612-0.138c0.282,0,0.522,0.057,0.725,0.171c0.203,0.114,0.369,0.263,0.497,0.448
		c0.129,0.183,0.225,0.394,0.289,0.628c0.062,0.235,0.094,0.48,0.094,0.732c0,0.375-0.072,0.737-0.222,1.089
		c-0.148,0.349-0.36,0.618-0.642,0.811L15.04,372.532z"/>
	<path fill="#010101" d="M13.755,379.915c-0.403,0-0.775-0.072-1.117-0.217c-0.34-0.143-0.629-0.343-0.875-0.597
		c-0.246-0.255-0.438-0.554-0.577-0.902c-0.135-0.348-0.205-0.718-0.205-1.117c0-0.4,0.069-0.772,0.205-1.118
		c0.138-0.346,0.331-0.646,0.577-0.895c0.246-0.251,0.538-0.448,0.875-0.592c0.337-0.145,0.714-0.217,1.117-0.217
		c0.408,0,0.775,0.072,1.114,0.217c0.335,0.145,0.623,0.342,0.866,0.592c0.243,0.249,0.432,0.549,0.569,0.895
		c0.138,0.346,0.205,0.718,0.205,1.118c0,0.398-0.066,0.769-0.205,1.117c-0.137,0.348-0.326,0.646-0.569,0.902
		c-0.243,0.254-0.532,0.454-0.866,0.597C14.531,379.843,14.163,379.915,13.755,379.915z M13.751,378.834
		c0.252,0,0.489-0.038,0.718-0.117c0.226-0.078,0.428-0.189,0.602-0.34c0.174-0.148,0.311-0.331,0.414-0.546
		c0.103-0.22,0.155-0.469,0.155-0.748c0-0.283-0.051-0.532-0.155-0.748c-0.102-0.22-0.24-0.403-0.414-0.546
		c-0.174-0.148-0.372-0.263-0.602-0.342c-0.226-0.077-0.466-0.115-0.718-0.115c-0.249,0-0.486,0.038-0.712,0.115
		c-0.228,0.078-0.432,0.192-0.609,0.342c-0.177,0.148-0.315,0.331-0.418,0.546c-0.102,0.218-0.155,0.468-0.155,0.748
		s0.051,0.531,0.155,0.748c0.103,0.22,0.242,0.4,0.418,0.546c0.172,0.151,0.378,0.262,0.609,0.34
		C13.263,378.795,13.5,378.834,13.751,378.834z"/>
	<path fill="#010101" d="M16.368,382.294c-0.134,0.014-0.283,0.026-0.448,0.032c-0.166,0.009-0.305,0.012-0.415,0.012v0.032
		c0.14,0.066,0.271,0.158,0.392,0.271c0.122,0.114,0.228,0.246,0.32,0.395c0.094,0.148,0.162,0.308,0.217,0.485
		c0.051,0.175,0.078,0.358,0.078,0.551c0,0.34-0.057,0.631-0.171,0.871c-0.114,0.243-0.268,0.448-0.458,0.609
		c-0.192,0.16-0.417,0.282-0.674,0.355c-0.258,0.08-0.535,0.117-0.829,0.117h-3.248v-1.04h2.908c0.215,0,0.417-0.017,0.609-0.049
		c0.191-0.032,0.36-0.095,0.508-0.182c0.148-0.089,0.266-0.211,0.354-0.365c0.088-0.154,0.132-0.352,0.132-0.597
		c0-0.414-0.157-0.749-0.471-1.011c-0.312-0.262-0.732-0.394-1.254-0.394h-2.786v-1.038h4.112c0.14,0,0.32-0.005,0.543-0.012
		c0.222-0.008,0.417-0.02,0.586-0.032v0.988h-0.006V382.294z"/>
</g>
</svg>
